<?xml version="1.0" standalone="no"?>
<!DOCTYPE svg PUBLIC "-//W3C//DTD SVG 20010904//EN"
 "http://www.w3.org/TR/2001/REC-SVG-20010904/DTD/svg10.dtd">
<svg version="1.0" xmlns="http://www.w3.org/2000/svg"
 width="1542.000000pt" height="1088.000000pt" viewBox="0 0 1542.000000 1088.000000"
 preserveAspectRatio="xMidYMid meet">

<g transform="translate(0.000000,1088.000000) scale(0.100000,-0.100000)"
fill="#000000" stroke="none">
<path d="M12175 10828 c-16 -6 -42 -19 -57 -29 -14 -11 -37 -19 -51 -19 -13 0
-30 -7 -37 -15 -7 -8 -17 -15 -22 -15 -6 0 -25 -12 -44 -27 -65 -55 -132 -103
-142 -103 -6 0 -19 -11 -30 -25 -11 -14 -24 -25 -28 -25 -19 0 -163 -147 -187
-190 -28 -52 -69 -123 -74 -130 -2 -2 -15 10 -29 28 -14 18 -31 32 -38 32 -7
0 -21 9 -31 20 -10 11 -24 20 -32 20 -7 0 -13 7 -13 15 0 8 -6 15 -13 15 -7 0
-30 9 -52 20 -22 11 -46 20 -55 20 -9 0 -25 7 -37 15 -50 35 -339 55 -488 34
-33 -5 -131 -11 -218 -14 -87 -3 -166 -10 -175 -14 -9 -5 -69 -14 -132 -21
-142 -13 -302 -40 -314 -51 -6 -5 -25 -9 -43 -9 -23 0 -33 -5 -33 -15 0 -8 -4
-15 -10 -15 -20 0 -9 -38 16 -55 20 -13 31 -15 48 -7 11 6 37 14 56 18 19 3
40 10 45 14 6 4 44 11 85 15 41 3 102 10 135 15 33 5 150 14 260 21 110 6 206
16 213 21 19 16 407 17 423 1 7 -7 22 -13 33 -13 19 0 72 -15 111 -31 11 -5
32 -13 48 -19 15 -5 27 -14 27 -20 0 -5 6 -10 14 -10 8 0 28 -11 44 -25 17
-14 33 -25 37 -25 4 0 24 -15 45 -32 66 -58 102 -88 106 -88 9 0 174 -171 174
-180 0 -6 16 -20 35 -32 20 -11 45 -38 56 -59 11 -22 23 -39 28 -39 5 0 23
-22 40 -50 17 -27 35 -50 39 -50 5 0 20 -24 35 -52 14 -29 34 -62 44 -73 26
-28 73 -103 73 -115 0 -5 5 -10 10 -10 6 0 10 -6 10 -14 0 -8 18 -45 40 -82
22 -38 40 -75 40 -82 0 -7 9 -32 21 -55 23 -48 52 -130 69 -197 6 -25 15 -54
19 -65 15 -34 31 -124 31 -170 0 -23 6 -61 14 -83 8 -22 12 -43 9 -45 -3 -3 2
-18 10 -34 18 -35 30 -64 53 -127 10 -27 31 -62 46 -78 16 -16 26 -33 23 -39
-15 -23 95 -142 168 -182 31 -17 57 -35 57 -39 0 -5 10 -8 23 -8 13 0 33 -11
45 -23 l22 -24 -22 -46 c-13 -26 -31 -50 -40 -53 -10 -3 -23 -17 -30 -32 -10
-20 -23 -28 -51 -33 -20 -3 -40 -9 -44 -13 -4 -3 -7 -28 -7 -55 -1 -52 0 -54
72 -123 17 -17 32 -39 32 -48 0 -9 7 -25 15 -36 20 -27 18 -61 -5 -91 -11 -14
-20 -32 -20 -39 0 -8 -6 -14 -13 -14 -8 0 -22 -9 -32 -20 -19 -21 -15 -25 30
-32 28 -5 82 50 100 101 31 89 10 203 -43 232 -12 7 -28 24 -35 39 -13 25 -12
28 24 53 20 15 41 27 46 27 10 0 53 62 53 77 0 6 6 16 14 22 16 13 28 77 20
107 -5 20 -121 104 -143 104 -6 0 -16 8 -23 18 -7 9 -24 23 -38 30 -33 18
-200 229 -200 254 0 7 -6 22 -13 33 -8 11 -19 49 -26 85 -7 36 -17 76 -22 90
-5 14 -12 57 -14 95 -3 38 -9 73 -15 79 -5 5 -10 24 -11 40 0 40 -22 142 -32
152 -4 4 -7 17 -7 28 0 12 -9 38 -20 59 -11 20 -20 50 -20 65 0 15 -4 32 -9
37 -4 6 -14 31 -21 58 -7 26 -16 50 -20 52 -4 3 -22 34 -40 70 -18 36 -38 65
-45 65 -7 0 -16 11 -19 24 -3 14 -29 54 -56 90 -28 36 -50 71 -50 78 0 46
-357 438 -399 438 -21 0 -19 31 4 59 15 16 25 42 25 59 0 24 18 48 98 130 53
55 115 112 137 128 22 16 57 43 78 61 20 18 44 33 52 33 8 0 19 8 24 18 5 9
38 28 73 41 34 13 66 29 70 35 10 14 79 8 99 -9 8 -8 22 -15 30 -15 8 0 32
-21 54 -47 22 -26 68 -76 102 -112 35 -37 63 -75 63 -86 0 -11 9 -35 20 -53
11 -18 20 -40 20 -50 0 -9 10 -35 21 -57 30 -54 31 -204 2 -244 -10 -14 -24
-37 -31 -51 -14 -28 -109 -93 -161 -111 -23 -8 -72 -10 -155 -5 -118 7 -146 9
-233 21 -53 8 -66 -10 -29 -40 60 -48 480 -82 524 -42 10 9 23 17 28 17 5 0
15 9 22 20 7 11 19 20 27 20 8 0 20 10 26 23 7 12 15 24 19 27 4 3 19 25 33
50 24 41 26 55 26 147 0 56 2 107 5 112 9 14 -21 121 -39 141 -8 9 -15 24 -15
32 0 9 -16 46 -35 82 -19 37 -35 70 -35 75 0 5 -30 42 -67 82 -134 143 -150
158 -190 164 -21 3 -47 8 -58 10 -11 1 -33 -2 -50 -7z"/>
<path d="M8695 10564 c-33 -8 -77 -19 -97 -23 -20 -5 -49 -17 -64 -27 -15 -10
-34 -24 -44 -29 -72 -43 -170 -137 -170 -164 0 -5 -11 -31 -25 -58 -22 -44
-24 -62 -24 -168 0 -87 4 -123 14 -139 8 -11 15 -28 15 -37 0 -9 7 -22 15 -29
9 -7 35 -52 59 -99 45 -89 122 -178 187 -218 85 -52 288 -72 387 -38 29 9 55
15 58 12 4 -3 -1 -21 -11 -39 -9 -18 -20 -65 -24 -105 -5 -39 -16 -86 -25
-104 -9 -17 -16 -39 -16 -48 0 -9 -7 -29 -15 -45 -8 -15 -15 -42 -15 -58 0
-17 -6 -44 -13 -61 -22 -52 -37 -102 -37 -125 0 -12 -4 -30 -10 -40 -10 -20
-34 -117 -50 -212 -6 -36 -15 -72 -20 -81 -5 -10 -4 -21 2 -27 8 -8 7 -16 -2
-27 -9 -11 -15 -58 -17 -148 -2 -73 -5 -150 -7 -172 -2 -22 -4 -50 -5 -61 -1
-12 -19 -44 -41 -72 -22 -27 -40 -54 -40 -59 0 -6 -9 -18 -21 -29 -40 -36 -79
-104 -79 -139 0 -32 2 -34 45 -41 25 -3 65 -1 90 5 24 6 55 11 69 11 22 0 26
-5 26 -29 0 -16 -7 -34 -15 -41 -8 -7 -15 -18 -15 -24 0 -18 24 -66 33 -66 4
0 7 -7 7 -15 0 -8 7 -15 15 -15 9 0 27 -7 40 -16 20 -13 23 -20 15 -34 -29
-55 7 -106 83 -116 l47 -7 0 -41 c0 -23 7 -51 15 -62 8 -10 15 -26 15 -34 0
-13 23 -46 93 -133 46 -58 149 -157 164 -157 4 -1 18 -17 31 -37 17 -27 22
-45 18 -68 -5 -23 -1 -36 11 -47 36 -31 63 -40 93 -29 58 20 99 -23 48 -50
-34 -18 -45 -28 -133 -114 -101 -100 -166 -183 -196 -250 -8 -16 -23 -43 -35
-60 -12 -16 -24 -44 -27 -61 -3 -18 -20 -53 -37 -80 -16 -26 -30 -56 -30 -65
0 -10 -4 -20 -9 -23 -5 -3 -12 -18 -16 -33 -3 -15 -17 -40 -31 -56 -13 -16
-24 -34 -24 -41 0 -18 -30 -77 -50 -101 -10 -11 -21 -34 -24 -51 -4 -18 -16
-40 -26 -49 -10 -9 -22 -34 -25 -56 -4 -21 -11 -41 -16 -45 -5 -3 -9 -13 -9
-23 0 -9 -11 -32 -25 -51 -14 -18 -28 -50 -31 -69 -4 -20 -10 -40 -14 -46 -4
-5 -11 -26 -15 -45 -4 -19 -11 -40 -16 -46 -14 -17 -27 -155 -18 -194 23 -104
158 -108 228 -7 17 25 31 50 31 55 0 6 7 12 15 16 11 4 15 -1 15 -19 0 -13 -4
-27 -10 -30 -5 -3 -10 -17 -10 -29 0 -13 -7 -29 -15 -36 -9 -7 -14 -19 -11
-26 3 -7 -2 -18 -10 -24 -8 -7 -14 -24 -14 -38 0 -14 -6 -33 -13 -41 -8 -9
-19 -35 -26 -59 -6 -23 -15 -42 -20 -42 -4 0 -16 -25 -27 -55 -15 -46 -16 -61
-7 -86 10 -27 9 -38 -7 -72 -11 -22 -20 -49 -20 -60 0 -10 -12 -34 -26 -52
-33 -43 -44 -114 -20 -127 9 -5 16 -14 16 -21 0 -7 9 -18 21 -25 18 -12 20
-19 14 -60 -4 -26 -11 -51 -16 -57 -5 -5 -9 -21 -9 -36 0 -16 -15 -47 -35 -73
-24 -32 -35 -57 -35 -80 0 -18 -9 -59 -21 -92 -31 -90 -38 -124 -39 -179 0
-27 -7 -58 -14 -68 -11 -14 -13 -46 -9 -140 3 -67 9 -126 13 -132 4 -5 11 -31
14 -57 9 -59 -6 -63 -62 -19 -20 16 -57 39 -82 52 -25 13 -47 27 -50 30 -7 9
-129 49 -149 49 -9 0 -27 7 -40 16 -33 23 -209 22 -245 -1 -14 -9 -31 -15 -37
-13 -7 2 -22 52 -34 111 -12 59 -29 115 -37 124 -8 10 -18 25 -22 33 -22 47
-39 66 -78 81 -56 23 -121 24 -139 2 -8 -9 -45 -41 -83 -71 -38 -31 -96 -82
-128 -116 -40 -40 -62 -56 -69 -49 -5 5 -11 48 -13 94 -4 96 -40 262 -62 280
-8 6 -14 19 -14 28 0 9 -5 22 -11 28 -16 16 -4 43 19 43 32 0 63 38 60 73 -4
42 -37 47 -94 16 -40 -21 -43 -22 -68 -6 -36 24 -55 21 -63 -10 -11 -45 -6
-67 23 -92 28 -23 74 -110 74 -137 0 -8 3 -14 8 -14 18 0 49 -108 57 -198 2
-24 10 -51 16 -59 18 -21 18 -175 0 -196 -11 -15 -10 -18 14 -27 40 -15 47
-13 88 26 27 26 37 43 34 56 -4 13 7 32 33 59 21 21 42 39 48 39 5 0 19 17 29
38 11 20 29 39 39 41 10 2 35 16 54 31 19 14 43 30 54 34 23 8 106 -38 106
-60 0 -8 9 -27 20 -42 46 -62 67 -292 32 -335 -6 -7 -14 -31 -17 -52 -8 -47
11 -205 25 -219 5 -5 10 -18 10 -27 0 -9 7 -22 15 -29 8 -7 15 -24 15 -39 1
-14 7 -37 15 -51 8 -14 14 -33 15 -43 0 -11 9 -31 19 -46 11 -15 22 -43 26
-63 4 -21 13 -42 21 -49 26 -21 15 -63 -36 -137 -27 -40 -50 -77 -50 -82 0 -6
-6 -10 -13 -10 -7 0 -21 -17 -30 -37 -9 -21 -30 -52 -46 -70 -16 -18 -32 -47
-36 -64 -8 -37 -62 -129 -76 -129 -5 0 -15 -15 -22 -33 -8 -17 -34 -49 -59
-69 -42 -35 -47 -36 -134 -39 l-89 -3 -3 27 c-3 20 -9 27 -25 27 -43 0 -149
-21 -167 -33 -15 -9 -22 -9 -32 1 -6 6 -21 12 -33 12 -21 1 -75 42 -75 58 0 5
9 17 20 27 11 10 22 34 26 54 5 32 18 67 45 124 5 9 13 25 17 35 5 9 14 27 20
39 7 13 12 28 12 35 0 6 6 19 14 27 22 26 58 178 63 270 3 47 10 92 16 99 17
21 16 474 -1 495 -7 8 -14 28 -15 44 -2 20 -8 28 -22 28 -19 0 -20 -8 -22
-184 -1 -126 -5 -191 -14 -207 -10 -20 -10 -29 1 -49 10 -19 11 -31 2 -48 -6
-12 -13 -62 -17 -112 -8 -106 -31 -214 -51 -236 -8 -8 -14 -27 -14 -41 0 -13
-3 -28 -7 -32 -11 -11 -43 -99 -43 -118 0 -9 -6 -21 -14 -25 -8 -4 -24 -37
-36 -72 -12 -36 -32 -78 -46 -94 -13 -16 -24 -35 -24 -42 0 -8 -16 -26 -35
-41 -19 -14 -35 -32 -35 -38 0 -19 -54 -66 -77 -66 -11 0 -34 -7 -51 -16 -26
-13 -32 -22 -32 -48 0 -34 -15 -56 -38 -56 -7 0 -24 -13 -37 -28 -13 -15 -47
-40 -77 -55 -29 -15 -60 -31 -68 -36 -8 -5 -36 -19 -62 -31 -27 -12 -50 -26
-54 -31 -3 -5 -20 -9 -38 -9 -17 0 -36 -4 -41 -9 -10 -10 -70 -27 -130 -38
-16 -3 -35 -9 -40 -14 -6 -4 -87 -9 -179 -10 -165 -2 -168 -3 -179 -26 -9 -20
-17 -23 -73 -23 -35 0 -66 -5 -69 -10 -8 -12 -152 -13 -159 -1 -7 11 -133 34
-146 26 -5 -3 -38 1 -74 9 -36 9 -114 16 -173 17 -74 1 -115 6 -131 16 -13 8
-42 16 -65 18 -67 5 -140 24 -167 44 -14 10 -47 28 -74 39 -26 12 -64 35 -82
52 -19 16 -41 30 -49 30 -10 0 -15 11 -15 34 0 38 -14 52 -44 47 -24 -4 -66
18 -66 34 0 7 -9 24 -20 38 l-20 25 25 16 c14 9 48 21 77 28 29 6 62 19 73 29
11 9 35 20 53 24 17 3 32 11 32 16 0 5 8 9 18 9 28 0 80 57 88 95 6 34 2 88
-11 152 -11 50 -75 93 -139 93 -28 0 -94 9 -146 20 -52 11 -110 20 -128 20
-18 0 -43 6 -55 14 -12 8 -40 17 -62 21 -43 7 -110 38 -120 56 -4 6 -26 19
-50 29 -23 10 -58 32 -77 48 -19 17 -47 34 -64 38 -16 4 -38 17 -49 30 -11 13
-42 29 -70 36 -27 7 -54 19 -60 26 -10 13 -131 47 -220 62 -27 4 -63 15 -80
24 -16 9 -45 16 -62 16 -27 0 -34 5 -39 28 -4 15 -13 36 -20 47 -10 13 -14 53
-14 126 0 86 -3 108 -15 113 -8 3 -15 16 -15 30 0 52 -34 41 -109 -35 -25 -26
-56 -52 -68 -58 -23 -12 -30 -42 -17 -75 10 -27 69 -20 97 10 14 14 32 24 43
22 15 -3 18 -16 22 -97 3 -87 2 -93 -15 -87 -10 4 -49 10 -88 13 -38 2 -84 9
-102 14 -17 6 -80 12 -140 14 -59 2 -164 8 -233 14 -169 14 -386 15 -490 2
-47 -6 -145 -13 -219 -15 -73 -3 -139 -10 -145 -15 -6 -5 -37 -12 -68 -15 -63
-8 -152 -36 -171 -55 -6 -6 -19 -11 -30 -11 -10 0 -27 -5 -38 -11 -11 -5 -59
-19 -108 -29 -48 -11 -101 -26 -117 -35 -16 -8 -38 -15 -49 -15 -12 0 -46 -9
-78 -20 -31 -11 -70 -20 -86 -20 -16 0 -31 -6 -34 -12 -2 -7 -34 -24 -71 -38
-36 -13 -66 -30 -66 -37 0 -7 -6 -13 -13 -13 -22 0 -81 -32 -95 -51 -6 -10
-29 -23 -50 -29 -33 -11 -92 -63 -92 -82 0 -5 -9 -8 -20 -8 -11 0 -26 -12 -34
-27 -8 -16 -28 -36 -43 -47 -16 -10 -35 -33 -42 -50 -7 -17 -16 -38 -21 -46
-37 -66 -110 -218 -110 -230 0 -8 -11 -33 -24 -54 -13 -22 -22 -45 -19 -51 2
-7 -7 -34 -21 -60 -15 -26 -26 -56 -26 -66 0 -10 -4 -20 -9 -23 -4 -3 -17 -34
-29 -68 -24 -74 -48 -356 -38 -445 4 -32 8 -69 9 -83 1 -14 5 -30 9 -36 4 -6
13 -44 19 -85 6 -41 17 -78 23 -84 7 -5 20 -48 30 -95 26 -131 38 -170 68
-233 16 -33 27 -65 24 -73 -3 -7 2 -18 10 -25 8 -7 26 -37 40 -68 14 -31 31
-69 39 -84 8 -16 15 -35 15 -42 0 -8 8 -20 19 -27 10 -7 21 -23 25 -35 11 -34
149 -163 175 -163 6 0 11 -5 11 -10 0 -6 12 -20 27 -33 15 -12 47 -40 72 -62
51 -45 89 -65 126 -65 13 0 26 -4 29 -9 4 -5 25 -12 48 -16 23 -4 49 -11 58
-16 23 -12 176 -29 260 -29 106 1 272 18 284 30 5 5 19 10 31 10 11 0 29 7 39
15 11 8 28 15 38 15 31 0 162 62 203 95 17 14 41 25 55 25 14 0 42 11 62 25
20 14 43 25 51 25 8 0 17 7 21 15 3 8 13 15 21 15 9 0 31 11 49 25 18 14 37
25 43 25 5 0 20 11 33 25 13 14 29 25 35 25 6 0 29 15 51 33 42 36 159 117
169 117 3 0 26 20 51 45 24 25 49 45 54 45 6 0 10 7 10 15 0 8 6 15 13 15 7 0
26 14 43 31 16 17 45 42 64 54 19 13 52 40 73 59 21 20 42 36 47 36 5 0 14 9
20 20 6 11 18 20 28 20 9 0 23 9 30 20 7 11 19 20 27 20 8 0 15 5 15 10 0 6 7
10 15 10 9 0 21 11 27 25 6 14 14 25 18 25 4 0 25 17 47 38 22 20 77 69 122
107 45 39 111 98 148 133 36 34 76 65 89 68 13 3 24 13 24 20 0 8 8 17 18 21
9 3 32 21 50 40 18 18 35 33 38 33 15 0 165 130 277 239 143 140 153 148 176
134 9 -6 38 -11 65 -11 48 -1 86 -22 86 -46 0 -20 67 -48 137 -57 37 -5 91
-11 118 -15 50 -7 75 -18 75 -35 0 -13 -347 -11 -355 1 -8 13 -132 13 -139 1
-4 -5 -19 -3 -37 6 -17 8 -32 13 -35 10 -3 -2 -6 -22 -8 -43 -4 -38 -5 -39
-40 -36 -36 4 -42 -4 -37 -46 1 -8 -3 -19 -9 -26 -19 -24 0 -44 48 -50 131
-18 182 -30 182 -43 0 -7 -7 -16 -15 -19 -22 -9 -18 -51 5 -64 11 -6 26 -8 32
-4 6 4 31 6 55 5 23 0 52 4 62 11 16 9 25 9 43 0 22 -12 212 -32 477 -52 69
-5 127 -13 130 -18 3 -5 35 -12 71 -15 161 -16 176 -20 164 -38 -3 -6 -288 -8
-791 -4 l-784 5 3 -27 3 -28 200 -6 c214 -6 242 -11 265 -40 13 -16 29 -19
100 -19 47 -1 123 -4 169 -7 l83 -6 -28 -23 c-23 -18 -41 -23 -86 -24 -31 0
-60 5 -63 10 -3 6 -19 10 -35 10 -16 0 -32 -4 -35 -10 -8 -13 -182 -13 -190 0
-8 13 -92 13 -100 0 -8 -13 -78 -13 -91 0 -8 8 -25 7 -58 -2 -37 -10 -51 -10
-67 0 -16 10 -20 10 -25 -3 -10 -26 3 -42 43 -50 21 -4 43 -10 48 -15 6 -4 93
-11 195 -14 241 -9 500 -25 511 -32 16 -9 10 -26 -7 -20 -9 4 -22 2 -28 -3
-13 -11 -81 -18 -301 -30 -88 -6 -176 -12 -195 -15 -55 -7 -298 -9 -309 -1
-18 11 -51 -5 -51 -24 0 -15 -11 -20 -52 -25 -93 -12 -160 -29 -165 -44 -3 -7
3 -23 15 -34 17 -18 39 -22 157 -29 76 -5 143 -13 150 -19 9 -8 15 -8 20 0 8
13 118 13 131 0 5 -5 143 -12 333 -15 178 -2 382 -10 452 -16 71 -6 140 -8
154 -5 29 7 33 31 8 44 -17 9 -154 22 -263 27 -85 3 -285 26 -305 35 -11 5
-47 11 -80 14 -192 17 -286 30 -273 37 13 9 796 5 1254 -7 290 -7 311 -4 301
46 l-6 27 170 -2 c152 -3 196 2 155 18 -8 3 -119 6 -247 7 -128 0 -235 3 -238
5 -9 10 6 13 104 25 99 12 498 8 583 -6 28 -4 41 -2 51 10 12 14 10 16 -8 16
-12 0 -19 4 -16 10 3 5 37 10 75 10 38 0 72 4 75 10 3 5 28 10 56 10 27 0 49
4 49 9 0 14 -70 17 -165 9 -202 -17 -196 -17 -206 9 -17 47 -5 53 105 53 55 1
184 3 286 6 166 4 345 -7 390 -24 8 -3 -25 -9 -75 -13 -144 -12 -195 -20 -195
-30 0 -11 70 -11 268 0 126 7 146 10 164 28 34 35 18 64 -53 101 -34 18 -71
32 -83 32 -12 0 -38 8 -58 18 -44 23 -106 39 -175 46 -61 6 -82 -10 -26 -19
21 -4 47 -10 58 -15 11 -5 31 -12 45 -15 80 -20 169 -51 167 -59 -4 -12 -368
-7 -383 5 -6 5 -74 12 -150 15 -86 3 -143 10 -150 17 -6 7 -14 29 -17 49 -5
36 -4 38 26 41 18 3 47 5 66 6 18 0 40 6 47 12 12 9 17 9 27 -4 7 -9 29 -19
50 -22 33 -7 37 -5 37 14 0 27 26 27 40 1 8 -14 20 -20 43 -19 l32 2 -34 6
c-30 5 -32 8 -18 19 9 8 21 11 27 7 6 -4 17 -2 23 4 7 5 79 12 161 14 81 3
150 7 153 10 3 3 1 18 -4 34 -9 25 -15 28 -54 29 -24 1 -82 6 -128 12 -46 7
-87 9 -91 7 -5 -3 -11 -1 -14 3 -8 13 50 65 66 59 9 -4 5 -8 -9 -12 -13 -4
-23 -11 -23 -16 0 -9 5 -11 55 -14 17 -1 79 -5 138 -9 83 -6 113 -12 126 -25
17 -17 16 -18 -11 -30 -40 -18 -25 -31 36 -31 42 0 57 5 74 23 12 13 22 27 22
33 -1 16 -70 44 -110 44 -21 0 -42 5 -45 10 -9 15 -75 12 -81 -4 -4 -10 -11
-8 -30 11 -29 29 -33 59 -6 47 22 -11 85 -11 145 -1 44 8 48 7 56 -15 18 -48
97 -65 334 -75 142 -5 157 -4 157 11 0 13 -12 16 -79 16 -44 0 -83 5 -86 10
-3 6 -35 10 -70 10 -63 0 -95 6 -95 19 0 3 66 7 147 9 81 1 149 5 152 8 3 3
-1 9 -9 14 -11 7 -12 12 -3 21 8 8 181 11 666 11 l655 0 51 -36 c30 -21 68
-38 93 -42 24 -3 52 -9 63 -14 11 -5 27 -11 35 -14 11 -3 8 -7 -9 -12 -23 -7
-24 -8 -5 -15 10 -4 48 -8 84 -8 91 -2 140 -11 140 -27 0 -16 -46 -19 -55 -4
-8 12 -62 13 -69 1 -8 -12 -174 -13 -181 -1 -4 6 -47 10 -96 10 -74 0 -95 -4
-117 -20 -24 -18 -44 -20 -194 -21 l-168 -2 0 -23 c0 -12 4 -25 9 -28 12 -8
142 -26 226 -32 39 -2 91 -7 117 -9 28 -4 49 -1 53 5 4 6 5 13 3 15 -5 5 -115
17 -167 19 -48 2 -50 22 -4 29 67 11 1235 -2 1249 -14 7 -5 32 -9 56 -8 62 2
558 -19 718 -30 74 -6 187 -13 250 -17 63 -3 120 -10 125 -14 6 -4 57 -11 115
-14 58 -4 132 -10 165 -15 33 -5 63 -7 67 -5 3 2 28 0 55 -5 26 -6 82 -13 123
-16 41 -3 79 -10 84 -15 6 -6 21 -10 36 -10 14 0 32 -5 40 -10 10 -7 -7 -8
-55 -5 -38 3 -140 7 -225 9 -85 2 -167 8 -181 14 -19 7 -30 7 -37 0 -8 -8 -15
-8 -24 -1 -7 6 -92 14 -188 18 -96 4 -197 8 -225 10 -52 3 -367 14 -560 20
-317 8 -525 19 -525 26 0 13 -58 11 -80 -3 -16 -10 -24 -10 -41 0 -15 9 -88
14 -267 16 -136 2 -274 7 -307 11 -33 3 -78 2 -100 -3 -30 -8 -34 -10 -15 -11
15 -1 30 -5 35 -10 6 -5 68 -12 140 -16 71 -4 133 -9 136 -11 4 -2 63 -7 131
-10 247 -11 432 -26 438 -34 3 -4 68 -13 145 -20 77 -7 159 -15 183 -17 27 -3
42 -1 42 6 0 6 -12 11 -27 11 -31 0 -61 15 -51 25 3 4 37 7 75 8 56 1 68 -2
71 -16 3 -12 -3 -17 -22 -17 -14 0 -28 -4 -31 -10 -6 -10 14 -16 90 -24 87
-10 130 -18 140 -27 6 -4 34 -10 61 -12 28 -2 55 -7 61 -10 5 -3 36 -8 69 -11
106 -8 244 -28 244 -35 0 -4 -5 -12 -12 -19 -9 -9 -4 -12 22 -13 40 -1 86 -4
185 -13 115 -11 159 -17 180 -26 11 -5 39 -13 63 -17 24 -4 42 -12 40 -18 -3
-10 -49 -11 -339 -5 -86 1 -162 -1 -168 -4 -27 -17 7 -26 94 -26 52 0 97 -4
100 -10 8 -14 48 -13 63 2 8 8 15 8 24 1 7 -6 95 -14 199 -18 l186 -6 28 24
c32 27 27 47 -13 47 -20 1 -23 3 -12 9 8 5 60 6 115 2 55 -4 104 -6 108 -3 5
2 -4 11 -20 19 -19 11 -75 18 -173 24 -309 17 -464 33 -486 51 -7 5 -34 10
-60 12 -27 3 -71 9 -99 14 -27 6 -99 16 -160 22 -60 6 -119 15 -130 20 -11 4
-54 13 -95 20 -41 7 -82 14 -90 17 -29 10 23 21 73 15 43 -4 49 -3 54 17 7 26
19 27 26 1 4 -16 14 -20 54 -21 26 0 55 -2 63 -3 8 -2 81 -6 163 -10 158 -6
286 -22 302 -37 12 -12 85 -11 85 1 0 6 -4 10 -9 10 -5 0 -11 8 -14 19 -4 18
-2 18 52 6 31 -7 114 -13 186 -14 71 -2 133 -5 137 -7 4 -3 26 1 48 7 31 9 43
10 52 1 7 -7 27 -12 45 -12 18 0 42 -5 52 -12 14 -9 23 -8 41 5 22 15 24 15
36 -1 10 -14 16 -15 32 -5 13 8 23 8 30 1 6 -6 118 -10 301 -10 308 0 325 3
319 46 -2 15 3 22 20 24 16 3 22 10 22 28 0 22 2 23 48 18 26 -3 55 -7 66 -9
27 -5 66 12 66 30 0 8 -5 15 -11 15 -7 0 -17 6 -23 14 -10 13 -138 38 -280 54
-56 7 -90 30 -49 34 10 0 24 2 32 2 20 1 24 19 9 39 -10 13 -44 21 -133 32
-66 8 -139 15 -163 15 -36 0 -44 4 -52 25 -5 14 -15 25 -22 26 -7 1 -33 3 -58
4 -124 10 -390 47 -406 57 -5 4 -67 10 -137 14 -181 10 -163 29 23 24 28 -1
143 0 205 2 21 0 41 -5 43 -11 5 -14 49 -15 57 -1 7 12 148 5 210 -10 22 -5
57 -10 78 -10 20 0 46 -6 58 -12 17 -11 22 -10 30 4 8 15 25 18 108 18 93 0
100 -1 115 -24 8 -14 26 -26 38 -28 15 -2 24 -11 26 -25 4 -28 48 -40 71 -18
20 18 77 20 87 3 5 -8 11 -6 20 7 12 16 23 17 90 11 42 -3 82 -10 88 -15 6 -4
49 -11 96 -14 47 -3 135 -10 195 -16 61 -6 169 -15 240 -21 72 -6 144 -17 160
-24 58 -25 238 -46 248 -28 11 17 -13 52 -35 52 -13 0 -34 7 -46 16 -14 10
-33 14 -47 10 -13 -3 -27 -1 -30 4 -5 8 22 10 84 9 59 -1 91 -6 91 -13 0 -8 2
-8 8 0 4 6 36 12 72 13 84 3 103 6 116 13 6 4 127 8 270 10 l261 3 -10 32 c-5
17 -18 33 -27 36 -29 7 -163 -4 -187 -15 -15 -8 -26 -8 -35 -1 -7 6 -114 14
-238 18 -323 12 -317 12 -329 19 -6 4 -59 9 -117 12 -59 2 -110 6 -113 8 -4 3
-34 1 -67 -3 -34 -4 -67 -4 -75 0 -8 4 -25 11 -39 17 -22 9 -165 24 -360 37
-105 7 -160 16 -160 26 0 5 109 9 255 9 192 0 255 3 255 12 0 9 3 9 12 0 15
-15 84 -16 93 -2 3 5 26 10 51 10 29 0 43 4 39 10 -4 6 -30 10 -58 9 -29 0
-137 0 -242 0 -104 1 -318 -3 -475 -9 -170 -6 -336 -7 -410 -1 -69 4 -129 6
-133 4 -4 -3 -31 -1 -60 3 l-52 7 70 14 c39 8 74 19 80 24 5 5 28 9 51 9 22 0
99 9 170 21 71 11 155 23 187 26 31 3 60 9 63 14 3 5 21 9 40 9 29 0 34 3 34
23 0 13 -5 28 -12 35 -15 15 -70 16 -86 0 -13 -13 -96 -17 -109 -5 -4 5 1 14
12 20 31 18 129 57 143 57 7 0 29 11 50 24 55 36 79 40 85 17 3 -14 11 -17 31
-14 31 6 39 19 57 91 9 37 17 51 27 47 7 -3 22 -5 33 -5 10 0 19 -5 19 -12 0
-27 69 -75 127 -88 32 -7 67 -19 78 -26 11 -8 34 -14 52 -14 17 0 34 -4 37 -9
8 -12 99 -41 129 -41 14 0 44 -7 67 -15 23 -8 53 -15 66 -15 13 0 24 -4 24 -9
0 -10 22 -15 179 -41 62 -11 119 -24 126 -30 8 -7 102 -13 247 -16 354 -7 405
-5 433 16 6 4 48 15 95 24 47 9 104 28 127 41 23 14 52 25 65 25 25 0 154 46
178 64 8 6 31 20 50 30 19 11 58 37 86 58 28 21 54 38 58 38 4 0 18 13 32 29
14 17 34 33 44 36 11 4 20 13 20 21 0 8 5 14 12 14 16 0 118 108 118 125 0 8
6 18 14 22 37 21 166 240 166 282 0 9 6 26 14 37 8 11 22 47 32 79 9 33 20 67
24 75 23 46 31 71 40 130 15 100 19 137 24 240 7 115 16 183 26 190 15 10 30
170 31 338 1 94 2 189 2 210 1 73 -24 346 -33 357 -4 5 -13 33 -19 60 -22 106
-60 220 -94 285 -24 44 -34 64 -51 100 -19 40 -127 155 -227 242 -88 77 -288
178 -352 178 -11 0 -33 6 -50 14 -18 8 -52 17 -77 20 -25 3 -67 8 -95 12 -158
19 -665 0 -665 -25 0 -8 -65 -21 -240 -46 -63 -10 -124 -21 -135 -26 -11 -5
-51 -16 -90 -24 -115 -25 -199 -48 -211 -57 -6 -4 -24 -9 -40 -10 -16 -1 -33
-7 -39 -14 -5 -6 -40 -16 -77 -22 -38 -6 -81 -20 -96 -31 -16 -11 -41 -23 -58
-27 -16 -3 -49 -17 -74 -29 -25 -12 -63 -30 -85 -40 -22 -9 -48 -21 -57 -26
-10 -5 -23 -9 -29 -9 -6 0 -19 -8 -28 -18 -9 -10 -36 -26 -61 -37 -25 -10 -52
-25 -61 -32 -8 -7 -21 -13 -27 -13 -6 0 -44 -19 -84 -43 -40 -23 -84 -48 -98
-55 -14 -7 -45 -23 -69 -37 -24 -14 -50 -25 -58 -25 -7 0 -13 -4 -13 -10 0 -5
-6 -10 -13 -10 -8 0 -47 -25 -88 -56 -41 -31 -81 -58 -89 -62 -15 -5 -94 -60
-140 -97 -31 -25 -180 -174 -180 -180 0 -3 -22 -33 -50 -67 -27 -34 -50 -67
-50 -73 0 -6 -18 -36 -40 -65 -22 -29 -40 -61 -40 -71 0 -9 -11 -24 -25 -33
-14 -9 -25 -25 -25 -36 0 -11 -18 -50 -40 -86 -22 -36 -40 -68 -40 -71 0 -2
-13 -30 -29 -62 -55 -111 -64 -152 -56 -262 6 -83 9 -98 21 -88 8 7 14 31 14
59 0 25 3 50 7 54 4 4 13 31 19 59 19 82 39 128 92 208 27 41 62 106 77 144
16 39 34 75 42 80 8 6 19 20 26 31 7 12 26 39 42 62 31 41 52 75 93 147 12 22
39 58 60 79 84 89 177 175 201 188 36 18 119 71 159 101 19 14 59 36 90 48 31
12 71 32 87 44 17 12 51 32 78 44 26 13 47 27 47 31 0 9 81 43 91 38 3 -2 20
9 38 25 18 15 42 27 55 27 12 0 46 15 75 34 29 19 65 37 79 41 15 4 36 15 47
25 11 10 43 25 70 33 82 25 148 49 188 68 22 11 49 19 61 19 12 0 38 12 59 26
21 14 52 25 70 25 18 0 41 4 52 9 11 5 58 16 104 25 46 9 93 22 105 30 11 8
53 16 91 19 74 6 150 18 225 35 25 6 62 11 82 11 20 0 39 4 42 9 9 13 58 20
191 27 66 3 122 7 125 9 4 2 163 -7 316 -18 28 -2 57 -8 65 -13 8 -5 39 -14
69 -21 104 -22 145 -36 180 -65 19 -15 38 -28 41 -28 4 0 30 -15 58 -34 127
-86 287 -246 298 -298 3 -16 10 -28 14 -28 5 0 14 -11 19 -25 5 -14 19 -44 30
-67 11 -23 20 -50 20 -59 0 -10 4 -20 9 -23 9 -6 14 -23 32 -106 17 -80 19
-94 25 -165 3 -38 9 -79 14 -90 11 -24 23 -174 22 -270 0 -134 -14 -360 -21
-365 -12 -8 -41 -245 -41 -334 0 -86 -15 -183 -36 -231 -7 -16 -20 -57 -29
-90 -17 -58 -71 -184 -101 -235 -8 -14 -18 -33 -21 -43 -3 -9 -9 -17 -14 -17
-5 0 -9 -8 -9 -18 0 -11 -27 -51 -60 -90 -33 -40 -60 -74 -60 -77 0 -11 -205
-185 -219 -185 -5 0 -19 -13 -31 -30 -12 -16 -29 -30 -37 -30 -9 0 -31 -11
-50 -26 -28 -22 -100 -52 -168 -71 -11 -3 -39 -14 -61 -24 -43 -20 -154 -46
-239 -56 -27 -3 -56 -10 -63 -16 -16 -13 -362 -10 -378 4 -8 7 -14 6 -19 -1
-5 -8 -11 -8 -21 1 -11 9 -18 9 -26 1 -15 -15 -65 -16 -73 -2 -3 5 -23 10 -43
10 -20 0 -55 5 -77 11 -22 6 -53 12 -70 14 -16 2 -57 10 -90 19 -33 8 -72 15
-87 16 -15 0 -42 8 -61 19 -18 10 -53 21 -78 24 -75 10 -113 19 -129 32 -8 7
-28 15 -45 19 -85 19 -195 69 -258 119 -27 20 -57 37 -67 37 -10 0 -20 3 -22
8 -3 8 -122 82 -132 82 -14 0 -116 51 -116 59 0 4 -12 14 -27 22 -16 8 -34 22
-41 32 -7 9 -17 17 -22 17 -5 0 -59 36 -119 80 -61 44 -115 80 -120 80 -4 0
-14 6 -20 14 -7 8 -36 27 -64 41 -29 15 -63 38 -78 51 -14 13 -31 24 -37 24
-7 0 -34 15 -60 33 -68 46 -89 57 -108 57 -10 0 -32 11 -49 24 -18 14 -98 59
-178 100 -134 68 -189 89 -272 103 -19 3 -35 13 -40 26 -6 12 -20 23 -32 25
-20 3 -23 -1 -23 -28 0 -47 33 -88 78 -96 20 -4 39 -10 42 -14 8 -10 91 -48
123 -56 15 -3 30 -10 33 -15 3 -5 16 -9 30 -9 13 0 29 -9 36 -20 7 -11 19 -20
26 -20 8 0 44 -18 82 -40 38 -22 72 -40 76 -40 9 0 118 -53 124 -61 3 -4 15
-9 27 -13 12 -4 44 -25 70 -47 26 -22 63 -44 81 -49 18 -5 50 -23 70 -40 102
-86 134 -110 148 -110 8 0 17 -7 20 -15 3 -8 27 -26 52 -41 26 -15 50 -31 53
-36 6 -9 19 -17 74 -45 11 -5 34 -17 50 -26 17 -9 45 -24 63 -32 17 -8 32 -19
32 -24 0 -11 -89 -71 -105 -71 -7 0 -20 -9 -29 -19 -10 -11 -43 -27 -74 -37
-32 -9 -61 -21 -67 -26 -5 -4 -23 -8 -41 -8 -17 0 -37 -6 -43 -14 -6 -7 -44
-24 -84 -36 -39 -12 -85 -28 -102 -35 -70 -28 -95 -35 -200 -50 -60 -9 -119
-20 -130 -25 -11 -4 -65 -13 -120 -20 -104 -12 -223 -37 -240 -50 -10 -7 -38
-11 -205 -30 -47 -6 -243 -10 -436 -11 -284 0 -365 3 -428 16 -43 9 -86 20
-95 24 -28 15 -87 31 -109 31 -11 0 -50 14 -85 30 -36 16 -70 30 -76 30 -19 0
-121 51 -121 60 0 6 -10 10 -22 10 -13 0 -32 7 -42 15 -11 8 -30 15 -42 15
-37 0 -237 189 -267 251 -9 20 -24 39 -32 43 -8 3 -15 12 -15 19 0 8 -9 22
-21 33 -59 53 -124 150 -146 217 -13 39 -23 81 -23 92 0 12 -4 25 -9 31 -13
12 -43 195 -45 269 -1 33 -5 66 -10 73 -11 18 -44 14 -76 -10 -33 -24 -38 -54
-16 -96 19 -36 48 -172 51 -239 2 -35 9 -61 20 -73 10 -11 22 -39 26 -63 12
-66 37 -125 74 -174 19 -25 35 -56 35 -69 0 -15 6 -24 15 -24 25 0 33 -39 18
-83 -13 -37 -12 -41 7 -62 l21 -23 -53 -54 c-38 -39 -64 -57 -90 -62 -20 -4
-39 -2 -42 3 -3 5 -18 12 -32 15 -33 9 -152 91 -177 123 -10 13 -23 23 -28 23
-13 0 -89 76 -89 89 0 6 -4 11 -9 11 -26 0 -201 217 -201 249 0 5 -20 28 -45
52 -29 28 -47 56 -51 77 -4 18 -15 39 -25 45 -11 7 -19 16 -19 20 0 5 -11 22
-25 39 -14 16 -25 36 -25 44 0 8 -4 14 -9 14 -5 0 -11 12 -14 27 -5 23 -28 90
-60 173 -18 46 -50 205 -54 270 -5 65 -2 82 18 125 19 39 36 56 84 85 56 33
65 35 145 35 68 0 94 -5 131 -23 25 -12 50 -22 55 -22 19 0 89 -41 109 -64 11
-13 30 -26 43 -30 12 -4 34 -25 49 -47 15 -23 34 -39 45 -39 10 0 38 -18 60
-40 23 -22 49 -40 58 -40 9 0 25 -7 36 -15 26 -19 50 -19 58 2 5 12 -3 24 -24
41 -16 13 -30 29 -30 37 0 7 -20 33 -45 56 -30 29 -49 57 -56 84 -5 22 -14 49
-19 60 -17 39 -24 102 -24 215 0 124 12 262 24 270 6 4 19 36 25 60 5 21 33
67 46 77 17 13 59 91 59 110 0 6 -9 13 -21 16 -17 5 -19 9 -10 26 6 11 11 29
11 40 0 12 9 40 20 64 21 45 24 61 22 120 -2 30 -7 40 -22 44 -11 3 -20 10
-21 17 -4 36 6 67 35 116 82 138 95 195 50 227 -24 18 -25 20 -11 48 8 17 21
44 28 60 7 17 21 42 31 57 10 14 18 34 18 43 0 10 18 55 39 100 22 45 43 94
47 109 3 14 10 29 15 32 9 5 -46 64 -60 64 -14 0 -90 -42 -111 -62 -11 -10
-20 -25 -20 -33 0 -22 -50 -55 -85 -55 -45 0 -60 31 -50 107 9 75 25 143 35
143 4 0 10 17 13 37 4 21 24 74 45 118 86 175 121 252 127 278 4 15 11 27 15
27 4 0 38 61 75 135 61 124 83 152 100 125 3 -5 14 -10 25 -10 18 0 42 34 78
112 9 21 23 38 30 38 21 0 73 60 92 106 18 42 142 195 201 250 19 17 50 40 69
52 20 12 51 40 69 62 l33 41 86 -1 c48 0 127 6 175 14 49 8 94 13 100 10 7 -2
19 0 27 6 32 20 -11 29 -190 40 -272 15 -343 24 -390 49 -22 11 -47 21 -56 21
-21 0 -94 50 -94 65 0 7 -9 19 -20 26 -19 13 -19 17 -6 66 10 37 11 54 3 62
-17 17 -34 13 -54 -13 -26 -34 -59 -42 -72 -18 -6 11 -31 44 -56 73 -55 64
-75 102 -75 140 0 23 -6 30 -34 40 -22 8 -37 21 -41 36 -3 13 -23 40 -45 59
-31 29 -39 41 -34 60 12 47 -35 128 -64 110 -10 -6 -37 15 -44 35 -4 9 -2 34
2 55 13 57 -5 90 -57 108 -35 12 -47 12 -80 1 -58 -21 -76 -19 -68 8 4 12 18
32 31 44 13 12 24 26 24 31 0 4 10 18 23 29 12 12 33 38 47 58 14 20 30 42 35
48 39 45 56 80 53 109 -2 25 -8 34 -25 36 -19 3 -22 12 -29 70 -8 74 11 311
27 326 5 6 9 24 9 41 0 18 3 35 8 39 4 4 12 42 19 84 17 111 22 133 43 173 11
19 22 55 25 80 4 24 9 51 13 59 3 8 6 22 7 30 1 9 9 31 18 50 22 48 44 117 52
165 4 22 13 54 20 70 22 54 35 101 35 126 0 13 12 44 26 69 15 25 39 70 55
100 15 30 44 72 63 93 20 21 36 41 36 43 0 3 16 24 35 47 19 22 35 47 35 54 0
7 5 13 11 13 6 0 27 14 48 32 46 38 120 59 182 52 44 -6 46 -5 62 27 14 29 14
36 2 48 -12 13 -27 13 -97 2 -101 -15 -137 -28 -163 -56 -11 -12 -28 -24 -38
-28 -9 -4 -22 -18 -27 -32 -5 -14 -15 -25 -22 -25 -7 0 -42 -41 -78 -90 -36
-50 -77 -107 -92 -127 -16 -19 -28 -41 -28 -47 0 -6 -13 -38 -30 -69 -16 -32
-30 -67 -30 -77 0 -11 -9 -24 -21 -30 -33 -18 -187 -24 -254 -10 -33 7 -77 15
-98 17 -30 4 -51 18 -105 73 -82 83 -142 157 -142 175 0 7 -3 15 -7 17 -12 5
-49 106 -63 168 -17 79 0 171 40 221 16 21 30 41 30 46 0 14 63 68 120 103 30
19 57 37 60 41 16 20 261 29 297 11 10 -5 32 -16 48 -23 45 -21 89 -52 143
-100 53 -49 74 -82 94 -149 12 -41 16 -45 48 -46 66 -4 78 31 30 86 -16 19
-29 42 -30 51 0 9 -6 22 -14 28 -8 7 -17 22 -20 35 -7 28 -82 92 -145 123 -26
13 -62 32 -81 44 -80 49 -165 59 -275 33z m-5985 -7519 c74 -8 173 -15 220
-16 47 -1 90 -5 95 -9 6 -4 44 -13 85 -20 41 -8 80 -15 85 -16 6 -2 28 -6 50
-10 22 -4 46 -15 53 -26 7 -10 22 -23 33 -29 17 -9 25 -7 45 12 17 16 27 19
36 12 7 -6 63 -22 123 -37 61 -14 133 -37 160 -51 28 -13 57 -25 65 -25 9 0
40 -16 70 -35 30 -19 58 -35 63 -35 5 0 23 -12 41 -26 17 -14 47 -36 66 -48
26 -17 34 -29 32 -46 -3 -29 14 -40 49 -33 21 4 31 -1 49 -27 12 -17 24 -29
27 -26 3 3 16 0 30 -5 20 -7 28 -6 38 8 11 15 19 16 71 5 149 -30 225 -42 270
-42 79 0 133 -86 90 -143 -16 -21 -83 -57 -106 -57 -8 0 -37 -16 -64 -35 -27
-19 -54 -35 -60 -35 -17 0 -105 -47 -142 -75 -18 -14 -41 -25 -52 -25 -11 0
-22 -9 -25 -20 -3 -12 -14 -20 -26 -20 -12 0 -21 -6 -21 -15 0 -8 -6 -15 -13
-15 -7 0 -26 -13 -42 -30 -16 -16 -32 -30 -36 -30 -4 0 -21 -12 -37 -27 -49
-47 -103 -88 -127 -97 -13 -5 -28 -20 -34 -33 -6 -12 -17 -23 -26 -23 -8 0
-15 -6 -15 -14 0 -8 -9 -17 -19 -21 -10 -3 -21 -15 -24 -25 -3 -11 -14 -23
-25 -27 -12 -5 -31 -24 -44 -43 -13 -19 -42 -43 -63 -54 -22 -10 -41 -22 -43
-27 -2 -4 -27 -25 -55 -45 -50 -35 -71 -53 -121 -101 -13 -13 -31 -23 -41 -23
-9 0 -19 -9 -22 -20 -3 -11 -11 -20 -18 -20 -8 0 -16 -9 -20 -19 -3 -10 -16
-22 -29 -25 -12 -3 -50 -31 -83 -63 -69 -65 -207 -191 -268 -245 -22 -19 -53
-41 -70 -49 -16 -8 -35 -26 -42 -39 -7 -14 -29 -33 -50 -43 -21 -9 -63 -37
-93 -63 -30 -25 -77 -64 -104 -87 -27 -22 -54 -46 -60 -52 -6 -6 -19 -14 -28
-18 -10 -3 -18 -13 -18 -21 0 -8 -12 -18 -27 -24 -16 -5 -37 -18 -48 -29 -33
-31 -102 -83 -110 -83 -4 0 -23 -14 -42 -30 -18 -17 -40 -30 -48 -30 -7 0 -22
-10 -32 -22 -19 -23 -73 -54 -218 -126 -136 -67 -174 -82 -199 -82 -14 0 -27
-4 -30 -9 -16 -25 -91 -50 -182 -61 -54 -7 -103 -16 -109 -21 -12 -12 -182
-12 -189 0 -3 4 -38 11 -78 14 -132 10 -231 35 -283 70 -38 26 -249 219 -288
264 -40 45 -45 118 -14 183 23 47 33 61 111 146 25 28 46 58 46 68 0 9 8 16
19 16 15 0 20 -10 27 -48 4 -26 6 -51 5 -56 -1 -4 17 -32 39 -62 33 -44 46
-54 70 -54 22 0 30 5 30 18 0 22 -11 37 -33 45 -10 4 -25 24 -33 44 -9 21 -22
52 -29 68 -29 65 -26 80 29 133 28 27 65 57 81 65 17 9 48 32 70 52 22 19 45
35 52 35 7 0 17 9 23 20 6 11 18 20 26 20 9 0 36 18 61 40 25 22 63 45 84 50
23 6 39 17 39 25 0 8 6 15 14 15 20 0 119 52 129 67 4 7 17 13 27 13 10 0 22
5 25 10 3 6 14 10 23 10 16 0 16 -11 6 -147 -5 -82 -10 -231 -9 -333 l2 -185
-89 -94 c-48 -52 -87 -99 -85 -105 8 -25 32 -12 98 54 39 39 72 70 75 68 2 -3
6 -35 8 -72 5 -71 23 -106 56 -106 31 0 38 21 29 98 -11 105 -11 104 -10 135
1 19 8 30 25 37 14 5 30 18 36 30 6 11 15 20 20 20 5 0 36 19 67 43 71 51 98
67 118 67 8 0 15 6 15 13 0 7 15 21 33 30 17 9 57 35 87 57 30 22 63 40 72 40
9 0 19 4 23 9 3 5 29 21 58 35 64 31 87 46 108 69 24 25 59 22 60 -5 0 -13 3
-31 5 -40 3 -10 7 -33 11 -50 3 -18 11 -40 18 -48 7 -8 16 -26 20 -40 4 -13
18 -42 30 -65 18 -31 30 -41 54 -43 26 -3 31 0 31 19 0 12 -14 37 -30 56 -51
57 -76 122 -85 219 -6 57 -5 62 19 77 14 10 30 17 36 17 7 0 30 15 53 33 23
17 53 38 67 46 32 19 171 93 232 125 44 22 113 71 148 105 8 8 30 21 50 30 19
9 61 33 93 54 31 20 62 37 67 37 6 0 10 -35 10 -81 l0 -80 43 3 c35 3 43 7 45
26 2 13 -1 29 -7 36 -6 6 -13 45 -17 84 l-6 72 31 6 c18 4 36 15 42 25 5 11
26 27 47 38 20 10 46 29 57 41 11 12 42 32 70 45 27 14 75 47 105 74 30 28 64
51 75 51 23 0 75 30 105 60 11 11 29 20 40 20 35 0 115 55 104 71 -8 14 -79
10 -108 -5 -37 -19 -184 -121 -259 -180 -34 -26 -82 -58 -107 -70 -25 -11 -51
-27 -58 -33 -7 -7 -18 -13 -23 -13 -5 0 -9 -7 -9 -15 0 -8 -11 -17 -25 -21
-13 -3 -29 -12 -36 -20 -6 -8 -22 -14 -35 -14 -21 0 -24 5 -25 43 0 23 -2 69
-4 102 -2 33 -6 99 -9 147 l-4 86 36 15 c20 8 56 18 80 22 23 4 42 10 42 14 0
9 88 41 112 41 10 0 37 11 60 24 24 13 81 34 128 46 47 12 102 30 123 41 22
10 45 19 52 19 8 0 26 5 42 11 15 7 48 13 72 15 62 5 73 10 69 36 -2 19 -11
24 -48 30 -37 5 -55 1 -105 -22 -33 -16 -103 -43 -155 -60 -52 -16 -103 -34
-112 -40 -30 -17 -137 -50 -161 -50 -14 0 -30 -6 -36 -14 -7 -8 -27 -18 -44
-22 -18 -3 -43 -12 -57 -19 -14 -7 -42 -15 -62 -19 l-36 -7 -7 63 c-4 35 -3
108 2 163 13 162 2 196 -54 159 -20 -13 -24 -21 -18 -42 4 -15 9 -107 11 -205
l2 -177 -26 -6 c-15 -4 -49 -18 -76 -30 -28 -13 -56 -24 -63 -24 -11 0 -47
-14 -138 -56 -16 -8 -50 -21 -75 -29 -24 -9 -47 -19 -50 -24 -7 -10 -130 -71
-145 -71 -7 0 -24 -9 -39 -21 -26 -21 -119 -59 -143 -59 -15 0 -18 51 -4 65 8
9 26 145 36 275 7 83 26 195 36 204 5 6 9 18 9 28 0 19 56 48 93 48 11 0 28 7
37 15 14 13 130 43 235 62 17 3 35 9 41 14 6 5 48 14 92 19 44 6 93 17 109 25
17 9 57 15 103 15 59 1 80 5 99 20 25 21 23 46 -4 56 -9 4 -55 -4 -103 -16
-48 -12 -112 -27 -142 -34 -30 -7 -68 -18 -83 -24 -16 -7 -43 -12 -61 -12 -34
0 -177 -33 -211 -49 -33 -16 -118 -40 -150 -43 -29 -3 -30 -1 -27 32 2 19 12
49 22 67 11 18 15 35 11 38 -5 2 -12 21 -15 40 -12 62 -76 33 -76 -34 -1 -20
-6 -65 -13 -101 -11 -59 -15 -66 -47 -82 -19 -9 -47 -17 -61 -18 -15 0 -45 -7
-68 -15 -22 -8 -41 -12 -41 -8 0 3 -10 -1 -22 -9 -33 -21 -160 -68 -183 -68
-11 0 -37 -9 -58 -20 -20 -11 -46 -20 -57 -20 -12 0 -33 -6 -48 -14 -15 -8
-44 -17 -64 -21 l-36 -7 8 44 c5 23 11 75 14 113 12 144 30 261 43 280 21 32
17 101 -9 125 -47 43 -77 19 -82 -66 -2 -33 -9 -78 -15 -102 -14 -49 -13 -127
2 -159 7 -16 7 -44 -1 -90 -7 -38 -15 -92 -19 -122 -8 -51 -11 -56 -49 -75
-23 -12 -47 -26 -55 -32 -8 -6 -30 -17 -49 -24 -19 -8 -51 -23 -70 -35 -19
-12 -51 -27 -70 -35 -19 -7 -57 -28 -85 -45 -27 -17 -63 -38 -80 -47 -67 -34
-135 -75 -233 -140 -57 -37 -106 -68 -108 -68 -3 0 -2 26 1 58 3 31 7 77 9
102 6 69 29 194 36 200 4 3 12 39 19 79 6 41 16 80 20 85 5 6 11 25 13 41 6
32 31 107 57 165 8 19 16 64 17 99 2 37 8 70 16 77 8 8 59 26 113 40 55 14
105 30 110 34 6 5 29 13 50 19 92 22 152 40 180 55 17 9 38 16 48 16 10 0 30
6 45 14 15 7 59 19 97 26 39 8 75 17 80 21 13 9 92 17 245 25 69 3 154 8 190
12 99 11 349 4 500 -13z m-1737 -322 c-3 -21 -15 -63 -25 -93 -11 -30 -22 -71
-25 -90 -3 -19 -9 -39 -13 -45 -9 -13 -41 -163 -56 -265 -3 -25 -10 -47 -15
-50 -4 -3 -15 -78 -24 -165 -9 -88 -20 -176 -25 -195 -6 -22 -38 -65 -85 -115
-41 -44 -75 -85 -75 -90 0 -6 -9 -16 -20 -23 -11 -7 -20 -18 -20 -25 0 -7 -15
-20 -32 -28 -21 -9 -33 -21 -33 -34 0 -29 29 -30 56 -1 13 14 32 26 41 26 10
0 24 14 32 33 7 17 28 45 45 61 17 17 31 36 31 43 0 7 4 13 9 13 5 0 17 3 26
7 15 5 17 0 11 -43 -3 -27 -7 -80 -8 -117 -1 -38 -5 -70 -9 -72 -3 -3 -7 -82
-9 -177 -3 -224 -2 -259 10 -273 6 -8 -2 -22 -25 -46 -67 -65 -192 -214 -199
-236 -4 -13 -10 -23 -14 -23 -8 0 -57 95 -68 130 -3 14 -9 27 -13 30 -15 12
-31 52 -31 78 0 15 -6 34 -12 40 -12 12 -29 73 -51 187 -6 33 -14 62 -19 65
-21 15 -52 227 -52 350 1 49 13 176 24 235 5 28 11 71 15 97 3 25 12 49 19 51
7 3 16 16 19 29 21 89 43 149 68 186 16 24 29 49 29 57 0 8 4 16 9 20 14 8 81
153 81 174 0 6 14 20 30 33 17 12 30 27 30 33 0 6 8 18 18 27 9 10 28 29 42
43 32 34 144 115 159 115 6 0 11 5 11 10 0 6 6 10 13 10 6 0 32 14 57 30 63
42 80 40 73 -7z m7111 -21 c11 -26 27 -58 36 -72 9 -14 20 -38 24 -53 4 -16
17 -38 30 -50 13 -12 35 -44 49 -71 14 -26 35 -55 46 -63 12 -8 21 -20 21 -27
0 -26 171 -203 203 -212 13 -3 31 -18 41 -35 9 -16 23 -29 31 -29 8 0 21 -10
29 -21 8 -12 28 -30 45 -40 17 -10 31 -24 31 -31 0 -7 17 -24 36 -38 20 -14
52 -40 71 -57 18 -18 39 -33 46 -33 7 -1 2 -9 -10 -19 -24 -20 -19 -30 20 -44
23 -8 12 -30 -11 -23 -10 3 -77 7 -150 10 -74 3 -138 8 -143 12 -5 3 -27 -5
-49 -17 -31 -18 -42 -20 -54 -10 -9 8 -64 14 -145 17 -124 4 -131 3 -131 -15
0 -10 7 -21 15 -25 20 -7 19 -25 -2 -33 -10 -3 -26 -13 -35 -21 -24 -20 -230
-25 -952 -22 -165 0 -319 -2 -343 -6 -47 -7 -54 3 -23 31 17 15 24 16 43 7 26
-14 258 -23 308 -13 29 6 34 11 32 34 -1 15 1 26 5 25 4 -1 17 2 30 6 14 4 28
3 36 -3 8 -7 40 -9 87 -5 41 3 190 7 332 8 249 2 290 7 274 34 -8 11 -847 10
-865 -2 -23 -14 7 -36 49 -36 22 0 39 -4 39 -10 0 -13 -161 -13 -196 1 -16 5
-73 13 -128 16 -55 4 -110 11 -122 18 -22 11 -22 12 14 24 42 14 85 33 92 42
3 3 30 10 60 16 30 6 73 17 95 23 22 7 57 14 78 17 20 3 40 9 43 14 3 5 16 9
29 9 68 0 97 48 55 90 -11 11 -20 29 -20 40 0 16 7 20 34 20 19 0 38 -4 41
-10 3 -5 19 -10 35 -10 16 0 31 -4 34 -8 10 -17 148 -4 201 18 11 5 45 11 77
15 35 4 58 12 62 21 3 8 12 14 20 14 7 0 16 11 20 23 3 13 25 44 49 68 53 54
72 84 80 128 9 45 54 144 94 208 18 29 33 57 33 63 0 5 4 10 10 10 5 0 16 16
25 36 14 34 55 92 65 93 3 1 14 -20 24 -47z m-5706 -210 c2 -13 -1 -28 -6 -35
-6 -7 -13 -66 -17 -132 -4 -66 -11 -127 -15 -135 -4 -8 -10 -61 -14 -118 -8
-129 -16 -182 -28 -182 -9 0 -172 -79 -228 -109 -8 -5 -26 -13 -40 -19 -25
-10 -86 -39 -121 -57 -10 -5 -19 -13 -19 -17 0 -5 -8 -8 -17 -8 -20 0 -125
-38 -133 -48 -7 -10 -81 -49 -108 -57 l-24 -7 6 94 c7 109 15 158 26 158 7 0
22 118 35 275 9 105 26 188 43 207 8 10 31 21 51 24 20 4 56 17 81 30 25 13
81 33 124 44 43 11 84 24 90 28 16 13 169 62 192 62 10 0 30 7 44 14 38 22 74
16 78 -12z m-736 -244 c-5 -7 -12 -53 -15 -103 -3 -49 -15 -148 -26 -220 -11
-71 -22 -186 -25 -255 -6 -137 2 -120 -82 -190 -12 -10 -31 -21 -42 -24 -11
-4 -26 -13 -32 -21 -7 -8 -25 -15 -41 -15 -15 0 -31 -5 -35 -11 -3 -6 -26 -20
-50 -31 -24 -10 -44 -23 -44 -28 0 -5 -24 -22 -52 -36 -29 -15 -69 -41 -89
-58 -19 -17 -68 -51 -108 -76 -40 -25 -96 -66 -124 -93 -78 -71 -79 -66 -73
233 6 241 18 374 38 417 6 11 7 26 4 32 -9 15 12 51 29 51 8 0 15 7 15 15 0 8
17 26 38 40 20 14 57 41 82 60 25 19 49 35 54 35 5 0 35 17 65 37 31 20 72 47
91 59 55 35 171 94 186 94 8 0 19 9 26 20 7 11 22 20 33 20 12 0 26 5 31 10
16 16 105 49 133 50 18 0 21 -3 13 -12z m1502 -195 c4 -81 9 -174 11 -205 4
-47 2 -58 -10 -58 -8 0 -15 -4 -15 -10 0 -5 -8 -10 -19 -10 -10 0 -24 -7 -31
-15 -7 -8 -18 -15 -24 -15 -7 0 -30 -15 -52 -34 -21 -18 -49 -36 -61 -40 -13
-4 -23 -12 -23 -17 0 -5 -6 -9 -13 -9 -8 0 -22 -9 -32 -20 -10 -11 -23 -20
-29 -20 -7 0 -27 -13 -46 -30 -19 -16 -42 -29 -50 -30 -8 0 -26 -9 -40 -20
-14 -11 -28 -20 -32 -20 -4 0 -24 -11 -44 -25 -20 -14 -43 -25 -51 -25 -8 0
-26 -11 -41 -25 -15 -14 -32 -25 -38 -25 -6 0 -23 -9 -37 -20 -14 -11 -32 -20
-41 -20 -8 0 -19 -7 -24 -17 -13 -21 -38 -11 -44 19 -2 13 -5 127 -7 254 -3
237 2 274 35 274 14 0 91 37 104 50 5 5 63 28 95 38 11 3 26 14 33 24 7 10 20
18 29 18 15 0 65 25 93 46 8 7 51 22 95 34 44 11 90 28 102 36 12 8 29 14 38
14 8 0 15 4 15 8 0 5 26 15 58 22 31 7 61 17 66 21 5 5 12 6 16 4 4 -2 10 -71
14 -152z m3846 18 c0 -14 -23 -28 -57 -36 -44 -9 -42 0 5 24 43 22 52 24 52
12z m2157 -18 c19 -16 65 -56 101 -89 37 -34 92 -73 122 -88 30 -14 66 -35 80
-46 l25 -20 -30 0 c-16 0 -97 7 -180 15 -82 8 -187 15 -232 15 -55 0 -83 4
-83 11 0 7 -11 9 -28 6 -15 -3 -34 -2 -42 3 -21 13 4 55 53 88 21 15 57 42 80
59 23 18 47 33 52 33 6 0 17 9 25 20 18 25 16 25 57 -7z m2751 -137 c-43 -22
-63 -28 -143 -42 l-30 -6 29 16 c15 9 33 16 38 16 6 0 24 6 41 14 70 32 127
34 65 2z m-7351 -73 c24 -16 62 -43 84 -60 23 -18 51 -33 63 -33 25 0 46 -17
46 -37 0 -21 -37 -15 -83 14 -90 58 -96 60 -295 99 -35 7 -10 32 36 37 88 9
105 7 149 -20z m7120 -9 c-4 -4 -30 -9 -59 -11 -64 -5 -56 9 10 17 49 6 60 5
49 -6z m-9359 -272 l2 -277 -57 -35 c-94 -56 -135 -79 -181 -100 -24 -11 -58
-31 -76 -45 -18 -14 -36 -25 -40 -25 -4 0 -16 -8 -27 -18 -10 -11 -32 -25 -47
-32 -15 -8 -48 -29 -73 -47 -26 -18 -52 -33 -58 -33 -6 0 -36 -25 -67 -55 -56
-54 -87 -68 -96 -42 -7 18 -2 448 6 477 3 14 7 61 9 105 2 80 2 80 33 90 16 6
43 19 60 30 16 11 45 27 64 36 103 48 169 78 200 89 19 8 49 24 65 36 17 12
45 25 63 29 17 4 53 21 80 39 47 33 94 54 122 55 13 1 15 -37 18 -277z m6670
226 c2 -11 -3 -18 -12 -18 -9 0 -16 5 -16 11 0 8 -4 8 -15 -1 -11 -9 -19 -9
-36 3 l-21 15 23 5 c44 9 74 3 77 -15z m173 -15 c7 -20 5 -23 -17 -23 -14 0
-35 9 -46 20 -15 13 -25 17 -32 10 -15 -15 -46 -12 -46 5 0 13 12 15 66 13 59
-3 68 -6 75 -25z m-2591 -7 c0 -18 8 -27 28 -34 19 -7 2 -8 -63 -5 -49 3 -96
6 -103 9 -25 8 -2 22 48 29 27 4 52 11 56 16 11 19 34 9 34 -15z m2240 -16 c0
-5 -16 -10 -36 -10 -21 0 -33 4 -29 10 3 6 19 10 36 10 16 0 29 -4 29 -10z
m820 2 c0 -5 -18 -9 -40 -10 -22 -1 -40 3 -40 8 0 6 18 10 40 10 22 0 40 -4
40 -8z m-595 -27 c6 -2 -23 -4 -62 -4 -40 -1 -73 3 -73 7 0 8 112 5 135 -3z
m-607 -2 c-10 -2 -28 -2 -40 0 -13 2 -5 4 17 4 22 1 32 -1 23 -4z m682 3 c0
-3 -4 -8 -10 -11 -5 -3 -10 -1 -10 4 0 6 5 11 10 11 6 0 10 -2 10 -4z m415
-16 c9 -14 49 -12 63 2 10 10 15 10 22 -2 8 -13 -3 -15 -77 -18 -88 -3 -100
-1 -88 17 8 14 72 14 80 1z m-3131 -20 c22 0 36 -3 33 -7 -12 -11 -247 -16
-247 -4 0 11 85 20 140 15 19 -2 53 -4 74 -4z m3271 0 c3 -5 2 -10 -4 -10 -5
0 -13 5 -16 10 -3 6 -2 10 4 10 5 0 13 -4 16 -10z m108 4 c81 -14 19 -26 -71
-14 -2 0 0 5 3 10 7 12 16 12 68 4z m2307 -34 c0 -13 -11 -13 -30 0 -12 8 -11
10 8 10 12 0 22 -4 22 -10z m-3905 -10 c3 -5 -3 -10 -14 -10 -11 0 -23 -4 -26
-10 -12 -19 -45 -11 -45 10 0 17 7 20 39 20 22 0 43 -4 46 -10z m755 -6 c30
-3 59 -10 65 -15 5 -5 27 -9 50 -9 22 0 66 -4 98 -10 42 -6 64 -6 77 2 14 9
21 8 35 -6 16 -16 7 -17 -166 -15 -101 0 -189 5 -195 10 -7 6 -22 5 -39 -1
-15 -6 -32 -7 -38 -3 -14 9 -36 12 -142 19 -82 5 -129 20 -118 37 5 9 257 3
373 -9z m3297 10 c-3 -3 -12 -4 -19 -1 -8 3 -5 6 6 6 11 1 17 -2 13 -5z
m-7094 -11 c-7 -2 -21 -2 -30 0 -10 3 -4 5 12 5 17 0 24 -2 18 -5z m3160 0
c-7 -2 -19 -2 -25 0 -7 3 -2 5 12 5 14 0 19 -2 13 -5z m1909 -44 c9 -5 30 -9
45 -9 28 0 53 -15 53 -32 0 -13 -65 -9 -79 5 -11 10 -14 10 -18 0 -5 -15 -74
-18 -88 -4 -6 5 -46 12 -90 15 -159 13 -195 18 -195 26 0 19 335 18 372 -1z
m2326 9 c-3 -7 -15 -15 -28 -16 -21 -3 -22 -2 -11 12 16 19 44 21 39 4z m147
-8 c4 -6 -5 -10 -19 -10 -14 0 -26 5 -26 10 0 6 9 10 19 10 11 0 23 -4 26 -10z
m110 -10 c4 -6 -10 -10 -34 -10 -22 0 -43 5 -46 10 -4 6 10 10 34 10 22 0 43
-4 46 -10z m-8607 -10 c-10 -6 -47 -7 -100 -1 l-83 8 100 1 c69 1 95 -2 83 -8z
m579 4 c-3 -3 -12 -4 -19 -1 -8 3 -5 6 6 6 11 1 17 -2 13 -5z m5798 -4 c-3 -5
-15 -10 -25 -10 -10 0 -22 5 -25 10 -4 6 7 10 25 10 18 0 29 -4 25 -10z m187
-6 c73 -4 138 -10 143 -14 6 -4 46 -11 90 -14 215 -18 387 -44 379 -58 -7 -12
-112 -10 -119 2 -5 8 -11 7 -21 -1 -9 -8 -18 -8 -26 -2 -7 6 -51 11 -97 12
-47 1 -103 6 -125 11 -23 5 -113 16 -200 25 -87 8 -165 20 -172 26 -19 15 -18
33 1 25 8 -3 74 -8 147 -12z m-4431 -19 c0 -6 -10 -12 -23 -13 -19 -4 -20 -2
-9 12 15 17 33 18 32 1z m4029 0 c11 -13 10 -14 -4 -9 -9 3 -16 10 -16 15 0
13 6 11 20 -6z m2770 5 c0 -5 -4 -10 -10 -10 -5 0 -10 5 -10 10 0 6 5 10 10
10 6 0 10 -4 10 -10z m-6753 -16 c-3 -3 -12 -4 -19 -1 -8 3 -5 6 6 6 11 1 17
-2 13 -5z m716 -1 c-7 -2 -19 -2 -25 0 -7 3 -2 5 12 5 14 0 19 -2 13 -5z
m-653 -18 c10 -12 10 -15 -2 -15 -8 0 -15 7 -15 15 0 8 1 15 2 15 2 0 8 -7 15
-15z m7178 8 c-10 -2 -28 -2 -40 0 -13 2 -5 4 17 4 22 1 32 -1 23 -4z m-4981
-9 c-3 -3 -12 -4 -19 -1 -8 3 -5 6 6 6 11 1 17 -2 13 -5z m189 -34 c-1 -16 -6
-30 -13 -30 -7 0 -10 11 -9 28 4 33 4 32 15 32 4 0 8 -13 7 -30z m187 14 c48
-4 90 -11 93 -15 3 -5 17 -9 32 -9 18 0 30 -7 37 -22 6 -13 24 -26 43 -30 59
-15 33 -38 -44 -38 -31 0 -49 6 -61 19 -12 14 -24 18 -45 14 -24 -5 -28 -2
-28 16 0 17 -6 21 -36 21 -43 0 -122 19 -130 31 -9 16 8 31 30 25 11 -2 60 -8
109 -12z m4105 -31 c-10 -2 -26 -2 -35 0 -10 3 -2 5 17 5 19 0 27 -2 18 -5z
m-6780 -43 c34 -8 52 -17 52 -27 0 -11 -7 -13 -28 -8 -16 3 -77 1 -138 -5 -60
-5 -138 -13 -174 -16 -59 -6 -63 -5 -46 8 26 20 15 45 -26 57 -47 15 292 6
360 -9z m3567 -10 c3 -5 1 -10 -4 -10 -6 0 -11 5 -11 10 0 6 2 10 4 10 3 0 8
-4 11 -10z m94 7 c-2 -1 -11 -8 -20 -15 -13 -10 -19 -9 -29 3 -11 13 -8 15 20
15 19 0 31 -1 29 -3z m-989 -17 c0 -5 -9 -10 -20 -10 -11 0 -20 5 -20 10 0 6
9 10 20 10 11 0 20 -4 20 -10z m524 -5 c18 -14 17 -15 -22 -15 -39 0 -51 8
-35 23 11 11 37 7 57 -8z m496 5 c0 -5 -5 -10 -11 -10 -5 0 -7 5 -4 10 3 6 8
10 11 10 2 0 4 -4 4 -10z m-317 -17 c-7 -2 -19 -2 -25 0 -7 3 -2 5 12 5 14 0
19 -2 13 -5z m723 -14 c4 -7 -4 -10 -22 -8 -36 4 -55 -7 -47 -26 3 -10 -1 -15
-12 -15 -11 0 -15 6 -11 18 5 13 -1 21 -21 29 -25 10 -20 11 39 12 38 1 70 -4
74 -10z m-5241 -9 c213 -16 249 -21 283 -36 17 -8 32 -16 32 -17 0 -1 -43 -4
-96 -5 -89 -3 -215 12 -239 29 -5 3 -49 12 -97 19 -154 21 -94 26 117 10z
m620 2 c22 -4 35 -11 29 -14 -16 -10 -182 -12 -229 -2 -37 7 -38 8 -15 15 33
9 164 10 215 1z m5999 -27 c4 -12 -3 -15 -29 -15 -24 0 -35 5 -35 15 0 10 10
15 29 15 16 0 31 -6 35 -15z m-1169 -28 c7 -6 -3 -8 -30 -3 -22 3 -62 6 -90 7
l-50 2 40 6 c49 8 116 2 130 -12z m509 -13 c55 -2 102 -7 105 -10 7 -8 -376 4
-509 16 -97 8 185 4 404 -6z m176 -14 c21 -7 18 -8 -18 -9 -26 -1 -41 3 -37 9
7 11 19 11 55 0z m796 0 c8 0 14 -7 14 -15 0 -19 -48 -20 -72 -1 -27 20 -22
29 13 22 17 -3 38 -6 45 -6z m-6346 -50 c10 -7 -18 -10 -87 -10 -56 0 -104 4
-107 9 -8 13 175 13 194 1z m5440 6 c0 -8 -71 -12 -76 -4 -3 4 13 8 35 8 23 0
41 -2 41 -4z m335 -12 c55 -3 123 -7 150 -9 121 -7 216 -18 221 -26 3 -5 19
-9 36 -9 30 0 68 -23 68 -42 0 -4 -55 -8 -122 -8 -96 0 -125 3 -139 16 -12 10
-52 18 -134 24 -64 5 -122 13 -128 18 -7 6 -57 16 -112 23 -129 16 -149 32
-30 25 50 -3 135 -8 190 -12z m435 6 c13 -8 13 -10 -2 -10 -9 0 -20 5 -23 10
-8 13 5 13 25 0z m-2391 -26 c2 -2 -12 -4 -32 -4 -20 0 -37 4 -37 10 0 8 58 3
69 -6z m59 -12 c2 -7 -3 -12 -12 -12 -9 0 -16 7 -16 16 0 17 22 14 28 -4z
m-5088 -7 c0 -9 -9 -15 -25 -15 -16 0 -25 6 -25 15 0 9 9 15 25 15 16 0 25 -6
25 -15z m1010 5 c0 -5 -13 -10 -30 -10 -16 0 -30 5 -30 10 0 6 14 10 30 10 17
0 30 -4 30 -10z m4340 -5 c10 -13 9 -15 -8 -15 -22 0 -36 13 -25 24 10 10 20
7 33 -9z m-3874 -18 c4 -4 -29 -7 -74 -7 -47 0 -82 4 -82 10 0 11 145 8 156
-3z m4277 6 c-7 -2 -19 -2 -25 0 -7 3 -2 5 12 5 14 0 19 -2 13 -5z m-5567 -41
c-3 -2 -36 -6 -74 -7 -45 -2 -78 -8 -95 -20 -25 -16 -67 -13 -67 5 0 17 27 25
110 30 85 5 135 2 126 -8z m1944 8 c0 -5 -9 -10 -20 -10 -11 0 -20 5 -20 10 0
6 9 10 20 10 11 0 20 -4 20 -10z m-1620 -29 c0 -11 -49 -21 -67 -14 -27 10
-12 23 27 23 22 0 40 -4 40 -9z m-722 -47 c21 -6 13 -21 -14 -28 -15 -4 -32
-2 -37 3 -6 6 -40 11 -76 11 -37 0 -84 4 -106 8 l-40 7 55 5 c54 6 193 2 218
-6z m-318 -4 c0 -13 -30 -13 -50 0 -11 7 -7 10 18 10 17 0 32 -4 32 -10z
m1449 -16 c3 -2 0 -9 -6 -15 -13 -13 -103 -3 -103 11 0 17 93 20 109 4z m-895
-1 c9 -9 13 -10 119 -12 54 -1 76 -4 71 -12 -4 -7 -40 -9 -108 -5 -55 3 -125
5 -153 6 -40 0 -53 4 -53 15 0 12 13 15 58 15 32 0 62 -3 66 -7z m1011 -3 c3
-6 -5 -11 -19 -11 -14 -1 -31 -2 -38 -3 -6 -1 -13 5 -15 12 -6 15 63 17 72 2z
m115 0 c0 -5 -9 -10 -20 -10 -11 0 -20 5 -20 10 0 6 9 10 20 10 11 0 20 -4 20
-10z m-915 -96 c201 -6 294 -14 301 -25 3 -5 -170 -9 -435 -9 -273 1 -441 5
-441 10 0 6 26 10 58 11 31 0 102 6 157 14 55 8 125 12 155 9 30 -3 122 -7
205 -10z m-1136 -105 c64 -7 121 -15 126 -20 6 -4 32 -9 58 -10 42 -2 66 -13
55 -24 -6 -6 -382 14 -412 23 -39 11 -44 30 -9 35 51 7 66 7 182 -4z m499 -52
c6 0 12 -3 12 -6 0 -3 -26 -5 -58 -5 -31 1 -81 2 -109 3 -33 1 -53 5 -53 12 0
9 26 10 98 4 53 -4 103 -7 110 -8z"/>
<path d="M7986 1801 c-13 -20 5 -31 50 -31 32 0 44 4 44 15 0 8 -6 15 -14 15
-7 0 -27 3 -44 6 -17 4 -32 1 -36 -5z"/>
<path d="M5155 9669 c-16 -5 -42 -10 -58 -11 -15 0 -32 -7 -38 -15 -6 -7 -18
-13 -25 -13 -8 0 -22 -4 -32 -9 -9 -5 -36 -17 -59 -26 -23 -10 -50 -26 -59
-36 -10 -11 -22 -19 -28 -19 -16 0 -75 -31 -116 -61 -19 -14 -53 -31 -75 -38
-22 -8 -47 -19 -55 -26 -8 -7 -31 -17 -51 -23 -20 -5 -60 -26 -89 -46 -29 -20
-58 -36 -65 -36 -7 0 -33 -18 -58 -40 -51 -45 -62 -48 -70 -20 -4 15 -14 20
-41 20 -21 0 -55 12 -83 28 -27 16 -59 31 -73 35 -14 3 -48 26 -75 51 -28 25
-57 46 -65 46 -8 0 -23 7 -33 14 -10 8 -48 22 -85 32 -37 9 -78 25 -92 34 -35
24 -116 48 -173 53 -27 2 -52 9 -56 16 -8 13 -106 6 -126 -9 -5 -4 -27 -13
-47 -19 -20 -7 -56 -28 -80 -46 -24 -19 -47 -35 -52 -35 -28 0 -166 -239 -166
-288 0 -10 -5 -23 -11 -29 -6 -6 -12 -53 -12 -110 -1 -76 2 -104 15 -123 10
-14 24 -45 33 -70 18 -51 90 -166 120 -192 11 -10 31 -21 45 -24 14 -4 32 -13
40 -20 24 -20 102 -34 172 -30 58 4 65 2 73 -17 13 -30 74 -37 81 -10 3 10 18
27 35 38 16 11 29 25 29 32 0 6 13 14 30 18 16 4 32 11 35 16 3 4 23 16 43 25
20 9 51 22 67 30 39 17 42 5 11 -53 -30 -56 -49 -102 -51 -123 -1 -8 -13 -33
-25 -55 -23 -40 -70 -208 -70 -249 0 -12 -4 -26 -9 -31 -5 -6 -11 -43 -13 -82
-4 -54 -2 -76 8 -84 18 -15 18 -34 -2 -49 -21 -18 -15 -74 9 -78 15 -3 17 7
17 96 0 113 24 266 46 300 9 13 17 34 18 46 1 12 5 26 7 31 3 6 14 36 24 68
11 31 23 57 27 57 4 0 8 4 8 10 0 12 52 123 61 130 3 3 14 23 24 45 10 22 30
52 44 66 42 42 131 157 131 168 0 6 6 11 13 11 15 0 107 93 107 108 0 11 43
52 56 52 5 0 39 27 76 60 36 33 71 60 77 60 6 0 11 5 11 10 0 6 5 10 11 10 6
0 20 11 31 25 11 14 27 25 36 25 9 0 32 9 50 20 18 11 39 20 48 20 8 0 17 7
20 15 3 8 22 18 42 21 20 4 58 20 85 36 26 15 52 28 58 28 11 0 81 43 129 80
19 15 62 32 95 39 33 8 62 17 65 21 7 11 149 30 227 30 47 0 72 -5 91 -18 60
-42 125 -47 156 -13 14 15 14 19 0 39 -8 12 -23 22 -32 22 -9 0 -26 7 -36 15
-11 8 -30 15 -42 15 -13 0 -26 5 -29 10 -8 13 -239 12 -280 -1z m-1697 -181
c10 -10 17 -10 32 0 12 7 21 8 25 2 3 -6 22 -10 41 -10 19 0 51 -7 71 -15 19
-8 42 -15 50 -15 8 0 37 -11 64 -25 27 -13 67 -29 88 -35 21 -5 59 -26 84 -45
25 -19 53 -35 62 -35 9 0 44 -19 78 -42 34 -24 75 -49 92 -58 16 -8 36 -27 45
-42 15 -28 14 -29 -35 -76 -27 -26 -72 -77 -100 -112 -27 -34 -68 -82 -90
-104 -39 -41 -125 -86 -163 -86 -10 0 -27 -9 -37 -20 -10 -11 -26 -20 -37 -20
-10 0 -18 -4 -18 -8 0 -5 -18 -15 -40 -22 -22 -7 -40 -19 -40 -25 0 -7 -21
-18 -47 -25 -27 -6 -61 -17 -78 -23 -53 -21 -154 -14 -209 14 -60 29 -132 100
-158 154 -10 22 -22 47 -27 55 -37 68 -41 82 -41 162 0 72 3 88 25 120 14 20
25 48 25 61 0 13 7 32 15 43 8 10 15 26 15 35 0 9 11 24 24 33 14 8 28 26 32
38 8 28 51 68 90 87 16 7 37 17 46 22 10 5 29 9 43 9 14 0 25 5 25 10 0 14 34
12 48 -2z"/>
<path d="M5818 9603 c-21 -14 -38 -34 -38 -43 0 -23 28 -46 53 -42 37 7 188
-20 194 -34 4 -10 44 -26 75 -28 3 -1 10 -4 14 -8 4 -5 15 -8 24 -8 10 0 23
-6 29 -14 6 -7 26 -16 44 -20 17 -4 48 -20 68 -36 20 -16 56 -39 79 -51 24
-13 45 -31 48 -41 2 -10 12 -18 22 -18 38 0 160 -142 190 -223 12 -31 26 -59
31 -63 6 -3 20 -27 31 -53 10 -25 35 -69 54 -98 19 -28 34 -61 34 -72 0 -11 9
-25 20 -31 11 -6 20 -19 20 -30 0 -10 5 -22 10 -25 6 -3 19 -23 29 -43 10 -20
30 -59 45 -85 26 -48 36 -114 16 -102 -12 7 -40 -12 -40 -27 0 -5 22 -19 50
-31 27 -12 50 -25 50 -29 0 -3 18 -37 40 -76 22 -38 40 -76 40 -86 0 -9 4 -16
8 -16 5 0 14 -23 21 -52 8 -28 22 -65 31 -82 10 -17 21 -50 25 -73 4 -24 11
-45 16 -49 5 -3 9 -18 9 -34 0 -16 5 -32 10 -35 6 -3 10 -19 10 -35 0 -16 6
-47 14 -67 8 -21 19 -74 25 -118 7 -44 16 -84 21 -89 13 -13 13 -53 0 -61 -7
-4 -7 -11 -2 -18 5 -7 15 -86 22 -177 6 -91 13 -167 15 -168 2 -2 13 -1 24 3
19 6 20 14 20 228 0 122 -4 224 -8 227 -4 3 -17 72 -29 154 -14 90 -28 156
-37 166 -11 12 -12 19 -4 27 8 8 6 19 -8 40 -11 15 -23 43 -26 61 -4 19 -15
46 -26 60 -10 15 -26 51 -34 80 -9 29 -28 74 -44 102 -15 27 -25 51 -22 55 3
3 37 1 75 -4 38 -5 101 -13 139 -17 39 -3 78 -10 87 -15 37 -20 299 -2 322 21
6 6 18 10 28 10 9 0 21 6 25 14 4 8 28 36 53 63 109 115 121 147 122 318 0
109 -17 223 -36 240 -7 5 -18 30 -25 55 -21 75 -62 153 -105 198 -22 23 -45
42 -51 42 -6 0 -26 10 -45 23 -79 53 -202 65 -363 36 -31 -5 -62 -7 -68 -4 -5
4 -20 0 -33 -8 -12 -8 -45 -22 -72 -30 -60 -18 -141 -55 -148 -66 -3 -5 -19
-11 -36 -14 -34 -7 -161 -131 -182 -177 l-12 -27 -23 34 c-13 19 -23 37 -23
41 0 13 -50 106 -68 127 -10 11 -23 31 -29 45 -6 14 -30 41 -53 60 -23 19 -57
49 -74 65 -17 17 -42 36 -56 43 -14 7 -45 28 -70 47 -25 19 -57 44 -73 56 -26
20 -80 39 -177 61 -25 6 -52 16 -61 24 -8 8 -23 14 -32 14 -9 0 -40 7 -69 15
-29 8 -62 16 -73 19 -12 3 -35 -5 -57 -21z m1837 -444 c87 -60 125 -106 125
-150 0 -15 5 -31 10 -34 13 -8 45 -78 61 -135 20 -72 17 -236 -7 -287 -10 -24
-24 -43 -30 -43 -7 0 -17 -14 -23 -30 -5 -17 -21 -34 -35 -40 -14 -5 -32 -20
-41 -33 -36 -56 -255 -85 -406 -53 -42 9 -116 19 -163 22 -85 7 -87 8 -101 38
-8 17 -19 38 -24 46 -16 26 -51 118 -51 135 0 9 -10 26 -23 39 -13 13 -31 40
-41 60 -9 20 -20 36 -24 36 -4 0 -13 15 -20 33 -7 17 -19 45 -27 60 -8 16 -15
36 -15 45 0 10 -9 23 -20 30 -27 17 -26 42 3 42 17 0 28 11 45 45 12 25 33 51
47 57 14 6 25 17 25 25 0 7 10 13 23 13 12 0 33 9 47 20 14 11 30 20 36 20 6
0 17 6 23 14 6 8 24 16 39 19 84 17 153 36 165 45 18 15 75 20 207 18 l115 -2
80 -55z"/>
<path d="M3627 7773 c-4 -3 -7 -16 -7 -27 0 -12 -7 -34 -16 -51 -8 -16 -17
-48 -19 -70 -11 -149 -102 -277 -205 -291 -66 -9 -85 -32 -93 -118 -3 -36 -11
-75 -17 -85 -5 -11 -10 -34 -10 -51 0 -26 6 -33 34 -45 45 -19 51 -40 24 -78
-13 -17 -23 -36 -23 -42 0 -5 -8 -27 -18 -49 -20 -46 -20 -48 -6 -80 16 -35
34 -39 79 -16 22 11 46 20 54 20 7 0 16 7 20 15 3 8 13 15 21 15 12 0 15 -6
10 -22 -4 -13 -9 -32 -11 -43 -6 -23 -21 -59 -40 -97 -12 -23 -12 -31 6 -70
11 -24 37 -56 59 -73 22 -16 43 -38 46 -47 3 -9 68 -79 143 -155 135 -136 138
-139 198 -151 33 -6 71 -12 85 -12 14 0 30 -5 37 -12 8 -8 15 -8 26 1 8 7 27
16 43 20 51 13 34 36 -27 37 -66 1 -90 8 -145 43 -38 24 -189 174 -271 270
-17 20 -52 59 -78 87 -48 53 -57 83 -31 104 8 7 15 21 15 32 0 11 9 31 20 45
22 28 19 65 -8 95 -20 24 -96 13 -139 -20 -29 -21 -33 -22 -39 -7 -9 22 8 57
55 113 48 59 63 125 30 142 -11 6 -33 8 -50 5 -24 -5 -29 -3 -29 12 0 23 22
73 33 73 4 0 7 13 7 29 0 29 33 61 63 61 8 0 18 10 22 23 4 15 8 18 12 9 6
-16 93 64 93 85 0 7 13 37 29 66 16 28 37 83 46 122 9 38 23 79 31 90 8 10 14
39 14 62 0 42 -1 43 -33 43 -19 0 -37 -3 -40 -7z"/>
<path d="M12464 7520 c-11 -4 -35 -25 -52 -45 -28 -31 -35 -35 -49 -24 -13 11
-19 9 -39 -14 -21 -25 -23 -35 -18 -82 6 -47 4 -56 -11 -61 -11 -5 -22 -1 -30
9 -7 10 -17 17 -23 17 -26 0 -73 -38 -86 -70 -9 -23 -33 -48 -70 -74 -31 -21
-56 -42 -56 -46 0 -19 -94 -69 -140 -75 -28 -4 -50 -11 -50 -16 0 -5 5 -8 12
-7 6 2 13 -4 15 -13 3 -10 -14 -25 -50 -45 -54 -29 -177 -152 -177 -177 0 -35
50 -48 84 -22 30 22 40 19 98 -31 29 -25 76 -56 103 -69 28 -12 67 -37 89 -54
21 -17 47 -31 58 -31 10 0 21 -7 24 -15 4 -8 10 -15 15 -15 4 0 29 -15 55 -32
99 -70 134 -84 134 -55 0 7 6 22 14 32 14 19 15 19 36 0 12 -11 30 -36 41 -56
10 -20 25 -39 32 -42 8 -3 18 -18 21 -34 6 -23 45 -84 65 -103 4 -3 14 -21 25
-40 37 -69 58 -105 67 -115 5 -5 9 -17 9 -27 0 -9 9 -22 19 -28 11 -5 22 -23
26 -40 4 -16 12 -33 18 -37 17 -11 34 -48 57 -124 11 -37 26 -69 34 -72 22 -9
49 -168 30 -186 -8 -8 -34 29 -34 49 0 9 -16 33 -35 53 -29 30 -43 37 -73 37
-48 -1 -103 -29 -113 -58 -7 -19 -4 -24 15 -32 13 -5 27 -14 31 -19 3 -6 19
-11 34 -11 16 0 34 -7 41 -15 7 -8 18 -15 25 -15 16 0 75 -90 75 -113 0 -10 4
-17 9 -17 5 0 12 -23 16 -51 4 -29 13 -53 21 -56 8 -3 14 -15 14 -28 0 -13 6
-25 14 -28 19 -8 64 -92 72 -135 4 -21 18 -47 32 -60 l26 -23 20 21 c24 23 25
103 2 129 -7 9 -16 29 -20 45 -4 16 -27 55 -51 86 -24 31 -47 70 -51 86 -4 16
-14 39 -22 51 -13 21 -12 25 11 53 22 25 25 38 22 81 -2 28 -11 61 -19 73 -8
12 -24 55 -36 94 -11 40 -32 88 -45 108 -13 19 -29 52 -35 72 -15 47 -29 79
-57 121 -13 19 -23 41 -23 49 0 8 -14 33 -30 56 -59 79 -80 112 -110 171 -16
33 -39 71 -50 85 -11 14 -20 33 -20 42 0 9 -16 29 -35 44 -19 14 -35 33 -35
40 0 8 -3 14 -8 14 -4 0 -22 14 -41 30 -45 42 -84 60 -126 60 -19 0 -35 4 -35
9 0 5 -13 12 -30 16 -16 4 -32 11 -35 16 -4 5 -15 9 -26 9 -11 0 -48 19 -82
42 -34 24 -64 44 -66 46 -7 4 92 102 103 102 5 0 21 11 35 24 61 57 103 89
163 120 57 29 63 35 66 67 2 23 15 48 39 75 19 21 41 53 48 69 18 40 60 79 79
72 22 -9 63 50 62 88 -2 30 -24 86 -35 84 -3 0 -15 -4 -27 -9z"/>
<path d="M7378 7014 c-10 -22 -8 -32 15 -74 15 -26 27 -53 27 -60 0 -17 38
-98 50 -105 5 -3 10 -17 10 -30 0 -25 -29 -50 -103 -90 -53 -27 -63 -72 -24
-114 39 -43 67 -88 67 -109 0 -28 -60 -99 -90 -105 -14 -3 -34 -12 -44 -20
-19 -14 -19 -18 -6 -57 14 -42 13 -43 -14 -66 -15 -13 -38 -24 -50 -24 -13 0
-29 -6 -35 -13 -6 -8 -34 -19 -63 -26 -36 -8 -65 -23 -90 -47 -21 -19 -38 -37
-38 -41 0 -6 -172 -174 -237 -233 -16 -13 -58 -39 -95 -57 -38 -18 -68 -37
-68 -41 0 -16 12 -21 31 -11 10 5 28 14 39 19 33 17 48 12 52 -17 2 -19 10
-29 27 -33 13 -3 27 -12 32 -20 11 -24 66 -143 73 -160 3 -8 15 -28 26 -45 33
-50 51 -97 61 -155 5 -30 9 -56 9 -58 0 -2 10 -2 22 0 18 2 25 -4 33 -29 6
-18 20 -42 32 -55 22 -25 30 -58 43 -183 17 -163 23 -200 31 -211 4 -5 11 -37
13 -70 9 -96 30 -188 50 -220 11 -16 25 -38 31 -50 8 -16 15 -19 33 -13 20 8
21 10 8 36 -32 65 -56 174 -56 258 0 19 -4 35 -9 35 -12 0 -22 47 -22 102 0
24 -7 81 -15 127 -9 47 -17 138 -18 203 -2 93 -7 122 -20 136 -9 10 -16 26
-16 35 0 23 -51 137 -61 137 -5 0 -9 9 -9 19 0 11 -5 23 -10 26 -6 4 -10 28
-9 53 1 26 -4 75 -10 108 -19 103 8 193 61 210 16 5 18 12 13 44 -6 33 -2 42
24 72 16 19 51 43 76 53 25 11 45 23 45 27 0 4 10 8 22 8 27 0 112 54 138 88
12 15 20 40 20 65 0 34 7 47 55 99 67 72 71 101 24 186 l-31 57 55 50 c71 64
99 118 83 162 -6 17 -14 35 -18 39 -5 4 -8 13 -8 21 0 7 -11 31 -25 53 -14 22
-25 48 -25 58 0 25 -55 82 -80 82 -12 0 -25 -10 -32 -26z"/>
<path d="M11625 6940 c-27 -22 -60 -40 -73 -40 -13 0 -47 -11 -75 -24 -83 -38
-141 -43 -450 -40 -198 2 -295 0 -304 -8 -17 -14 -17 -48 1 -48 7 0 26 -6 42
-14 22 -12 80 -15 283 -15 269 0 322 6 407 45 28 13 56 24 62 24 38 0 192 120
192 150 0 21 -38 8 -85 -30z"/>
<path d="M11710 6105 c-20 -24 -4 -64 28 -71 15 -4 43 -15 62 -24 19 -10 51
-24 70 -31 43 -15 70 -37 70 -57 0 -20 -88 -10 -124 14 -23 14 -26 15 -32 1
-7 -19 2 -37 19 -37 7 0 28 -8 47 -19 19 -10 57 -21 84 -24 46 -5 52 -3 78 25
35 37 35 50 2 93 -29 38 -124 105 -149 105 -9 0 -35 9 -57 20 -50 24 -81 25
-98 5z"/>
<path d="M4162 6048 c-43 -30 -44 -32 -38 -73 5 -31 3 -45 -8 -54 -8 -7 -27
-44 -42 -83 -16 -39 -34 -72 -41 -75 -7 -3 -13 -15 -13 -28 0 -21 -6 -37 -44
-130 -22 -51 -36 -100 -36 -123 0 -11 -4 -23 -9 -26 -4 -3 -12 -43 -16 -88 -5
-66 -11 -85 -27 -96 -10 -8 -17 -20 -14 -28 6 -16 -42 -143 -60 -159 -7 -5
-22 -46 -35 -90 -12 -44 -28 -87 -36 -96 -7 -8 -17 -40 -23 -69 -6 -30 -19
-73 -30 -95 -11 -23 -20 -48 -20 -56 0 -8 -7 -22 -14 -32 -8 -10 -20 -45 -27
-78 -8 -38 -20 -64 -31 -70 -10 -5 -18 -16 -18 -23 0 -7 -9 -21 -20 -31 -11
-10 -20 -28 -20 -39 0 -12 -11 -33 -25 -48 -14 -15 -25 -35 -25 -44 0 -10 -12
-38 -27 -63 -28 -47 -62 -135 -63 -161 0 -8 -11 -37 -25 -64 -14 -27 -25 -58
-25 -67 0 -17 -19 -74 -41 -124 -19 -43 -53 -259 -44 -282 7 -21 35 -15 35 7
0 12 7 32 16 45 9 13 13 29 9 34 -3 6 -2 28 4 48 5 21 15 63 21 94 6 30 20 72
30 92 11 20 20 48 20 61 0 14 4 27 9 30 5 3 12 22 15 41 8 39 46 115 58 115 4
0 8 9 8 20 0 11 5 20 10 20 6 0 10 13 10 29 0 16 7 34 15 41 8 7 15 17 15 23
0 24 43 96 65 111 14 9 25 21 25 26 0 5 16 26 35 47 19 21 35 45 35 53 0 8 7
24 15 34 8 11 15 31 15 44 0 13 7 36 14 50 8 15 18 57 21 94 4 39 12 72 21 79
8 6 14 25 14 41 0 16 6 31 15 34 8 4 15 16 15 28 0 11 7 34 15 50 8 15 15 34
15 41 0 6 12 34 27 61 14 27 25 61 24 75 0 16 5 29 14 33 8 3 15 14 15 25 0
11 14 28 33 40 37 23 77 73 77 96 0 25 30 147 43 175 7 14 17 28 23 32 7 4 17
38 24 75 7 38 20 77 30 88 23 26 50 80 50 98 0 8 21 38 47 67 l47 53 71 -6
c63 -5 135 -22 190 -47 11 -5 56 -16 100 -25 44 -9 99 -26 123 -37 38 -18 47
-19 68 -8 21 12 29 11 63 -8 21 -12 40 -19 43 -17 3 3 20 -1 39 -9 19 -8 64
-18 99 -22 36 -3 70 -11 77 -16 10 -8 101 -26 168 -33 11 -1 36 -6 55 -10 19
-5 37 -9 40 -10 3 -1 25 -5 50 -9 25 -5 50 -12 55 -16 6 -5 31 -11 57 -13 26
-3 52 -9 58 -12 6 -4 23 -4 37 0 24 6 24 7 8 24 -9 11 -31 21 -48 24 -85 13
-173 38 -183 52 -6 8 -24 15 -39 15 -15 0 -53 6 -84 14 -31 8 -75 17 -98 19
-24 2 -46 6 -50 10 -3 4 -17 7 -30 7 -13 0 -34 7 -46 14 -12 8 -44 20 -72 26
-27 6 -59 14 -70 19 -98 43 -134 61 -140 70 -10 16 -81 13 -95 -4 -8 -9 -22
-13 -39 -9 -44 9 -136 38 -141 45 -3 4 -30 10 -60 14 -66 8 -79 17 -72 52 5
25 4 26 -36 19 -25 -4 -43 -2 -47 5 -4 5 -19 7 -34 4 -22 -5 -35 1 -61 25 -40
37 -54 37 -108 -2z"/>
<path d="M6145 5850 c-23 -23 -49 -40 -61 -40 -13 0 -29 -9 -37 -21 -21 -30
-100 -69 -140 -69 -18 0 -37 -4 -42 -9 -6 -4 -38 -16 -72 -27 -40 -11 -63 -23
-63 -32 0 -12 9 -13 43 -7 23 4 49 7 57 7 51 0 169 22 190 35 26 17 131 103
140 115 3 3 23 8 45 10 33 2 41 7 43 26 2 13 -2 30 -8 38 -21 25 -54 16 -95
-26z"/>
<path d="M10307 5042 c-35 -39 -8 -99 39 -88 16 4 34 1 48 -8 27 -17 96 -19
96 -2 0 28 -38 77 -75 96 -49 25 -87 26 -108 2z"/>
<path d="M6253 4953 c-39 -15 12 -93 61 -93 12 0 39 -17 59 -38 32 -33 36 -42
29 -63 -9 -22 -15 -24 -73 -24 -62 0 -64 -1 -67 -27 -3 -22 2 -30 23 -38 18
-7 33 -7 46 1 11 5 28 7 39 4 27 -8 98 60 106 101 5 26 0 38 -28 69 -37 44
-143 115 -167 114 -9 0 -22 -3 -28 -6z"/>
<path d="M10167 4945 c-16 -6 -39 -24 -51 -40 -18 -23 -27 -27 -50 -21 -15 4
-31 17 -36 31 -11 29 -41 33 -65 8 -19 -18 -15 -78 8 -114 27 -43 105 -28 142
27 9 13 33 36 55 50 57 38 55 84 -3 59z"/>
<path d="M12930 4486 c0 -8 -3 -21 -6 -29 -3 -10 3 -18 18 -22 13 -4 40 -20
60 -36 20 -16 42 -29 48 -29 15 0 107 -48 114 -59 4 -5 20 -13 38 -16 17 -4
43 -18 57 -31 14 -13 31 -24 37 -24 6 0 17 -7 24 -15 7 -8 21 -15 31 -15 10 0
24 -8 31 -18 7 -9 26 -23 41 -30 37 -16 30 -36 -14 -40 -19 -2 -38 -7 -44 -12
-5 -4 -39 -14 -75 -20 -172 -32 -267 -52 -285 -60 -36 -16 -89 -28 -175 -40
-47 -7 -98 -18 -115 -25 -34 -14 -124 -40 -171 -50 -28 -5 -37 2 -140 107 -60
62 -123 131 -139 153 -46 63 -127 135 -152 135 -38 0 -53 -11 -53 -39 0 -33
16 -51 46 -51 28 0 149 -120 189 -187 10 -17 28 -37 39 -43 12 -6 32 -27 46
-45 14 -19 31 -35 38 -35 8 0 12 -7 10 -16 -3 -16 -88 -54 -121 -54 -11 0 -33
-6 -50 -14 -69 -29 -90 -37 -134 -46 -25 -6 -63 -19 -86 -30 -22 -11 -46 -20
-52 -20 -5 0 -27 -9 -48 -20 -20 -11 -45 -20 -55 -20 -10 0 -26 -6 -37 -14
-11 -7 -37 -16 -59 -20 -40 -8 -129 -46 -134 -58 -2 -5 -9 -8 -16 -8 -27 0
-146 -61 -224 -114 -45 -31 -84 -56 -87 -56 -11 0 -119 -87 -158 -128 -42 -43
-46 -75 -12 -80 12 -2 32 9 50 28 16 16 33 30 38 30 6 0 30 17 55 37 63 52
155 113 169 113 6 0 21 13 32 29 11 15 33 31 48 34 16 3 45 17 66 31 20 14 61
35 90 47 28 12 59 28 67 34 8 7 26 15 40 18 65 14 164 48 180 62 9 8 31 18 48
21 18 4 35 11 38 15 3 5 22 9 42 9 21 0 46 6 57 14 23 15 123 53 174 66 19 5
49 16 66 26 42 22 102 12 114 -19 5 -12 19 -31 32 -43 13 -11 31 -31 39 -42 8
-12 22 -24 30 -27 9 -3 23 -18 31 -35 15 -32 160 -185 184 -194 8 -3 15 -12
15 -21 0 -8 7 -23 15 -32 65 -75 75 -91 62 -100 -6 -6 -45 -13 -85 -17 -68 -6
-112 -14 -207 -38 -22 -6 -75 -12 -119 -14 -47 -3 -83 -10 -90 -17 -6 -7 -42
-21 -81 -31 -38 -9 -82 -23 -97 -31 -15 -7 -42 -16 -59 -20 -16 -4 -42 -13
-57 -21 -15 -8 -33 -14 -40 -14 -7 0 -37 -11 -66 -25 -60 -28 -87 -65 -66 -90
19 -23 42 -18 96 20 27 19 53 35 59 35 5 0 32 11 59 25 27 13 53 22 58 19 5
-3 20 2 34 11 14 9 49 23 77 32 29 8 57 19 63 24 6 5 46 14 90 20 43 6 81 12
84 14 3 2 44 9 90 15 47 6 91 16 98 22 17 15 203 37 228 28 21 -9 94 -87 94
-102 0 -4 7 -8 15 -8 8 0 15 -7 15 -15 0 -8 5 -15 10 -15 6 0 14 -9 18 -19 4
-11 30 -43 57 -73 28 -29 70 -80 94 -113 25 -33 55 -71 68 -84 13 -13 23 -30
23 -37 0 -8 11 -21 24 -29 24 -16 40 -51 27 -60 -8 -5 -79 -17 -203 -36 -43
-7 -78 -16 -78 -21 0 -4 -12 -8 -26 -8 -14 0 -33 -4 -42 -9 -10 -5 -53 -17
-97 -26 -44 -9 -84 -20 -90 -26 -5 -5 -21 -9 -35 -9 -61 0 -99 -72 -46 -86 26
-6 87 10 122 33 11 7 47 18 80 24 32 6 75 19 94 29 19 10 67 23 105 29 39 6
91 16 118 21 96 20 142 27 152 24 6 -3 18 -22 27 -44 10 -21 27 -44 38 -50 11
-6 20 -17 20 -26 0 -8 8 -27 18 -42 69 -102 82 -123 82 -130 0 -4 13 -34 29
-67 46 -96 61 -134 61 -155 0 -11 5 -20 10 -20 6 0 10 -6 10 -14 0 -7 7 -19
15 -26 12 -10 18 -10 30 0 21 17 19 73 -5 115 -11 20 -20 44 -20 55 0 11 -4
20 -8 20 -5 0 -17 16 -28 35 -10 19 -22 35 -25 35 -4 0 -10 12 -13 28 -4 15
-31 63 -61 107 -30 44 -55 86 -55 95 -1 8 -14 31 -31 50 -27 32 -28 36 -13 47
23 17 52 21 228 37 81 7 151 17 155 23 3 5 15 10 26 10 11 0 124 8 250 17 127
9 235 16 242 16 6 0 16 -13 22 -30 5 -16 15 -30 20 -30 6 0 11 -15 11 -32 1
-18 7 -44 15 -58 8 -14 14 -35 15 -46 0 -12 9 -33 20 -47 12 -15 24 -49 27
-77 5 -43 10 -53 30 -61 13 -5 29 -9 34 -9 14 0 11 43 -7 68 -8 12 -22 48 -29
79 -8 32 -21 72 -29 88 -29 63 -45 101 -51 127 l-7 27 70 0 c61 0 72 -3 92
-24 31 -33 56 -32 65 3 3 15 14 35 22 44 12 13 13 21 5 31 -9 11 -42 13 -141
11 -148 -3 -149 -3 -174 81 -8 28 -28 77 -45 110 -16 33 -33 71 -37 85 -4 14
-11 30 -15 35 -18 23 -50 87 -50 98 0 7 -13 34 -29 59 -19 31 -26 48 -18 51
14 5 201 -2 321 -11 19 -2 19 -3 2 -15 -11 -8 -15 -19 -10 -31 6 -16 15 -18
73 -12 70 7 95 24 107 73 8 30 -10 53 -28 35 -14 -14 -68 -16 -68 -4 0 9 -175
24 -315 27 -133 3 -128 1 -163 50 -18 25 -32 49 -32 54 0 4 -10 16 -21 27 -12
10 -36 42 -54 69 -33 52 -153 185 -240 265 -141 131 -163 150 -173 150 -7 0
-12 6 -12 14 0 8 -16 23 -35 35 -51 30 -46 51 13 51 26 0 68 6 93 14 25 8 80
17 122 21 53 5 77 12 81 22 5 12 9 13 21 3 12 -10 21 -10 38 -2 12 6 96 16
187 22 91 6 179 13 197 16 29 5 32 4 35 -23 3 -24 8 -28 40 -31 29 -3 43 2 63
22 28 28 34 83 10 92 -23 9 -333 -12 -347 -23 -7 -6 -44 -13 -83 -17 -38 -3
-99 -10 -135 -15 -36 -5 -108 -14 -160 -21 -52 -7 -99 -16 -105 -20 -12 -10
-118 -30 -158 -30 -20 0 -50 17 -101 58 -39 33 -84 62 -99 66 -15 3 -27 10
-27 15 0 8 -27 26 -108 72 -18 11 -37 19 -41 19 -5 0 -33 16 -63 35 -29 19
-62 38 -73 41 -11 4 -22 9 -25 13 -24 29 -100 42 -100 17z m637 -433 c26 -20
50 -40 51 -45 2 -4 10 -8 19 -8 8 0 46 -31 85 -70 39 -38 73 -70 77 -70 9 0
158 -150 179 -180 9 -14 32 -41 50 -60 37 -38 154 -201 149 -207 -2 -1 -71 -5
-153 -7 -337 -11 -440 -17 -461 -28 -17 -8 -26 -8 -37 1 -10 8 -16 9 -21 1 -3
-5 -29 -10 -56 -10 -27 0 -132 -9 -232 -20 -142 -16 -187 -18 -209 -9 -15 6
-28 17 -28 25 0 7 -6 17 -13 21 -7 4 -20 18 -29 31 -8 12 -33 41 -54 64 -21
24 -55 63 -76 88 -20 25 -66 77 -103 115 -37 39 -80 89 -96 112 -16 23 -37 46
-46 51 -14 8 -13 11 8 17 13 4 42 16 64 25 23 10 86 26 140 36 55 9 107 23
115 30 8 7 42 15 75 19 33 4 80 14 105 21 25 8 56 14 70 14 14 0 39 7 55 16
29 15 72 24 218 43 38 5 71 12 75 15 12 13 32 5 79 -31z m653 -708 c11 -4 20
-15 20 -25 0 -10 3 -20 8 -22 9 -4 39 -59 97 -178 25 -52 52 -106 59 -120 8
-14 19 -43 26 -65 7 -22 19 -49 26 -60 31 -44 20 -52 -78 -61 -51 -5 -106 -7
-121 -5 -16 1 -35 -4 -44 -11 -13 -11 -17 -11 -21 0 -3 9 -8 10 -17 2 -15 -12
-94 -22 -411 -51 l-241 -22 -31 33 c-18 18 -32 37 -32 43 0 5 -13 26 -30 46
-16 20 -47 58 -67 84 -48 60 -141 167 -204 233 -27 28 -49 56 -49 61 0 6 -7
16 -15 23 -24 20 -18 39 13 39 62 -1 228 14 237 21 6 4 57 11 115 15 58 3 119
9 135 11 17 3 129 8 250 10 121 3 221 7 223 9 6 5 129 -3 152 -10z"/>
<path d="M4202 4253 c-9 -21 -25 -44 -34 -51 -10 -7 -18 -22 -18 -32 0 -10 -6
-25 -13 -32 -32 -33 -69 -141 -69 -203 0 -68 8 -82 56 -98 45 -16 129 -8 150
13 17 17 46 11 46 -10 0 -20 27 -40 54 -40 8 0 30 14 48 30 35 33 59 38 77 16
8 -9 8 -21 0 -45 -30 -85 103 -121 198 -53 15 11 49 30 76 42 26 12 47 28 47
36 0 7 12 19 28 26 32 16 44 58 15 58 -10 0 -34 -10 -53 -23 -19 -13 -50 -29
-67 -36 -18 -7 -49 -28 -68 -47 -28 -26 -43 -33 -67 -30 -34 3 -53 34 -44 69
2 10 -7 31 -22 48 -24 29 -29 31 -74 26 -26 -3 -50 -2 -53 3 -3 4 -23 11 -45
15 -33 6 -46 2 -82 -23 -24 -16 -61 -35 -83 -41 -50 -13 -70 4 -78 67 -4 35
-2 45 15 56 13 10 22 30 25 60 4 36 15 56 54 99 54 61 65 108 30 127 -28 15
-30 14 -49 -27z"/>
<path d="M10406 3254 c-7 -19 3 -64 15 -64 5 0 9 -16 9 -36 0 -36 40 -118 68
-141 26 -21 59 -15 96 18 20 17 35 34 35 37 -4 25 5 46 33 77 l31 36 -20 27
c-28 38 -59 41 -68 5 -3 -15 -12 -35 -20 -43 -7 -8 -16 -25 -19 -37 -4 -13
-11 -23 -15 -23 -17 0 -54 65 -59 104 -3 22 -10 44 -16 48 -20 14 -64 8 -70
-8z"/>
<path d="M6829 3104 c-38 -40 -59 -49 -124 -49 l-60 0 -3 -33 c-2 -22 3 -41
14 -53 20 -23 50 -25 58 -4 3 8 12 15 20 15 15 0 45 15 91 45 60 40 83 86 49
99 -21 8 -17 9 -45 -20z"/>
<path d="M6564 3048 c-11 -13 -25 -35 -32 -51 -20 -47 -110 -65 -134 -27 -13
20 -62 28 -72 12 -8 -13 13 -80 27 -89 25 -16 112 -20 142 -7 39 16 85 60 85
80 0 9 9 29 21 45 17 24 18 33 9 44 -17 20 -23 19 -46 -7z"/>
<path d="M6078 2879 c-28 -16 -21 -44 23 -96 46 -53 107 -93 143 -93 48 0 91
124 59 169 -20 30 -31 18 -39 -39 -3 -27 -11 -51 -18 -53 -23 -9 -56 13 -75
52 -18 35 -55 72 -71 71 -3 0 -13 -5 -22 -11z"/>
<path d="M13175 1741 c-9 -15 14 -24 43 -16 20 5 23 8 11 16 -18 11 -46 12
-54 0z"/>
<path d="M13055 1730 c-15 -6 -6 -9 32 -9 28 -1 55 4 58 9 8 12 -61 12 -90 0z"/>
<path d="M13375 1730 c-4 -6 13 -10 44 -10 28 0 51 5 51 10 0 6 -20 10 -44 10
-25 0 -48 -4 -51 -10z"/>
<path d="M11858 1543 c7 -3 16 -2 19 1 4 3 -2 6 -13 5 -11 0 -14 -3 -6 -6z"/>
<path d="M7310 1530 c20 -13 33 -13 25 0 -3 6 -14 10 -23 10 -15 0 -15 -2 -2
-10z"/>
<path d="M7448 1523 c7 -3 16 -2 19 1 4 3 -2 6 -13 5 -11 0 -14 -3 -6 -6z"/>
<path d="M7635 1520 c-4 -6 7 -10 24 -10 17 0 31 5 31 10 0 6 -11 10 -24 10
-14 0 -28 -4 -31 -10z"/>
<path d="M8164 1495 c30 -16 43 -14 31 4 -3 6 -18 11 -33 11 l-27 0 29 -15z"/>
<path d="M14133 1503 c-7 -2 -13 -9 -13 -14 0 -12 57 -12 65 1 3 6 2 10 -4 10
-5 0 -15 2 -23 4 -7 3 -19 2 -25 -1z"/>
<path d="M14575 1490 c-10 -11 -16 -22 -14 -24 7 -7 49 13 49 23 0 20 -18 20
-35 1z"/>
<path d="M14220 1492 c0 -10 47 -22 87 -22 15 0 23 5 21 13 -5 14 -108 23
-108 9z"/>
<path d="M8465 1470 c-4 -6 7 -10 24 -10 17 0 31 5 31 10 0 6 -11 10 -24 10
-14 0 -28 -4 -31 -10z"/>
<path d="M7186 1461 c14 -15 440 -26 449 -12 4 7 -3 11 -17 11 -13 0 -117 3
-233 6 -155 5 -207 3 -199 -5z"/>
<path d="M7818 1462 c-141 -3 -160 -22 -25 -23 244 -3 429 -1 434 5 4 3 -5 6
-18 6 -49 1 -254 11 -264 13 -5 1 -63 1 -127 -1z"/>
<path d="M8575 1460 c28 -12 67 -12 60 0 -3 6 -23 10 -43 9 -30 0 -33 -2 -17
-9z"/>
<path d="M7650 1450 c0 -5 5 -10 10 -10 6 0 10 5 10 10 0 6 -4 10 -10 10 -5 0
-10 -4 -10 -10z"/>
<path d="M8966 1181 c-22 -3 -41 -11 -43 -17 -6 -18 36 -24 65 -8 15 8 34 14
42 14 13 0 13 1 0 10 -8 5 -17 9 -20 8 -3 0 -23 -4 -44 -7z"/>
<path d="M9036 1141 c-8 -13 18 -21 44 -14 16 4 18 8 8 14 -17 11 -45 11 -52
0z"/>
<path d="M9294 1102 c3 -5 68 -13 143 -17 76 -3 163 -8 193 -10 30 -2 132 -7
225 -10 94 -4 176 -12 183 -17 8 -7 17 -7 26 1 10 8 16 9 21 1 8 -13 72 -13
80 0 11 18 -41 29 -151 29 -60 1 -194 6 -299 11 -389 20 -427 21 -421 12z"/>
<path d="M10940 1100 c0 -5 25 -10 56 -10 34 0 53 4 49 10 -3 6 -28 10 -56 10
-27 0 -49 -4 -49 -10z"/>
<path d="M11067 1088 c-7 -4 5 -8 26 -9 20 -1 42 -2 47 -3 6 -1 9 4 8 9 -3 12
-64 14 -81 3z"/>
<path d="M6172 1079 c2 -7 24 -14 47 -16 30 -2 41 1 39 10 -3 6 -24 13 -47 15
-31 2 -42 0 -39 -9z"/>
<path d="M11226 1061 c23 -25 344 -65 329 -41 -3 5 -16 10 -28 10 -42 0 -112
12 -123 21 -17 14 -191 24 -178 10z"/>
<path d="M8847 1043 l-29 -15 24 -13 c23 -11 323 -31 407 -27 18 1 39 -2 45
-7 14 -11 113 -18 521 -36 182 -8 378 -18 438 -22 95 -5 107 -4 107 10 0 13
-10 17 -47 18 -27 0 -57 2 -68 4 -11 2 -76 7 -145 10 -69 4 -127 10 -130 15
-4 6 -436 35 -580 38 -142 4 -457 26 -464 33 -14 13 -46 9 -79 -8z"/>
<path d="M10210 1051 c0 -17 122 -32 137 -18 3 4 -10 7 -30 7 -20 0 -39 5 -42
10 -8 13 -65 13 -65 1z"/>
<path d="M10360 1030 c0 -5 7 -10 16 -10 8 0 12 5 9 10 -3 6 -10 10 -16 10 -5
0 -9 -4 -9 -10z"/>
<path d="M5930 1010 c-13 -9 -13 -10 0 -10 8 0 28 -7 43 -15 18 -9 64 -15 137
-16 61 -1 110 -6 110 -11 0 -4 -11 -8 -24 -8 -48 0 -35 -18 15 -22 60 -4 85 7
49 21 -14 5 -18 10 -9 10 8 1 19 -3 25 -9 15 -15 108 -30 148 -23 57 9 42 43
-19 43 -13 0 -27 5 -31 11 -4 7 -25 9 -55 7 -26 -3 -52 -1 -56 3 -5 5 -65 10
-133 13 -69 2 -138 7 -155 10 -16 4 -37 2 -45 -4z"/>
<path d="M11596 1009 c2 -3 22 -9 45 -13 23 -4 51 -13 62 -21 18 -13 4 -14
-124 -8 -144 6 -224 0 -214 -17 3 -4 51 -9 108 -9 57 -1 195 -8 308 -16 121
-8 208 -10 213 -5 19 19 -15 37 -80 44 -36 4 -73 11 -82 16 -20 11 -242 38
-236 29z"/>
<path d="M5745 950 c6 -10 80 -19 105 -13 37 10 10 21 -50 21 -33 0 -58 -3
-55 -8z"/>
</g>
</svg>
